<svg width="978" height="145" viewBox="0 0 978 145" fill="none" xmlns="http://www.w3.org/2000/svg">
<rect x="466" y="0.5" width="512" height="144" rx="72" fill="#6155F5"/>
<mask id="path-2-outside-1_2604_36" maskUnits="userSpaceOnUse" x="511.5" y="19.5" width="421" height="106" fill="black">
<rect fill="white" x="511.5" y="19.5" width="421" height="106"/>
<path d="M570.621 111.835L569.478 118.5H522.95L524.029 111.835H570.621ZM541.231 26.0781L525.235 118.5H517.554L533.55 26.0781H541.231ZM653.991 67.3379L652.404 77.1768C651.515 82.5934 649.971 87.862 647.77 92.9824C645.612 98.0605 642.777 102.631 639.264 106.693C635.794 110.756 631.668 113.972 626.887 116.342C622.147 118.669 616.751 119.812 610.7 119.77C604.818 119.727 599.888 118.458 595.91 115.961C591.932 113.464 588.843 110.163 586.642 106.059C584.442 101.911 583.003 97.3411 582.326 92.3477C581.691 87.3542 581.755 82.3184 582.516 77.2402L584.103 67.4014C584.95 61.9847 586.473 56.7373 588.674 51.6592C590.916 46.5387 593.773 41.9473 597.243 37.8848C600.755 33.8223 604.881 30.6273 609.621 28.2998C614.403 25.93 619.798 24.7663 625.807 24.8086C631.732 24.8509 636.662 26.1204 640.597 28.6172C644.575 31.1139 647.664 34.4147 649.865 38.5195C652.066 42.6243 653.483 47.1947 654.118 52.2305C654.753 57.224 654.71 62.2598 653.991 67.3379ZM644.787 77.2402L646.437 67.2109C647.03 63.1908 647.178 59.1283 646.882 55.0234C646.628 50.8763 645.739 47.0465 644.216 43.5342C642.734 40.0218 640.47 37.1865 637.424 35.0283C634.419 32.8701 630.441 31.7487 625.49 31.6641C620.581 31.6217 616.18 32.6162 612.287 34.6475C608.436 36.6364 605.114 39.3659 602.321 42.8359C599.528 46.2637 597.243 50.0934 595.466 54.3252C593.731 58.557 592.503 62.8522 591.784 67.2109L590.134 77.2402C589.541 81.2181 589.372 85.2806 589.626 89.4277C589.922 93.5749 590.811 97.4046 592.292 100.917C593.815 104.429 596.079 107.286 599.084 109.486C602.131 111.687 606.087 112.829 610.954 112.914C615.99 112.999 620.433 112.025 624.284 109.994C628.177 107.963 631.52 105.233 634.313 101.806C637.106 98.3779 639.37 94.527 641.105 90.2529C642.84 85.9788 644.067 81.6413 644.787 77.2402ZM738.44 67.3379L736.854 77.1768C735.965 82.5934 734.42 87.862 732.22 92.9824C730.062 98.0605 727.226 102.631 723.714 106.693C720.244 110.756 716.118 113.972 711.336 116.342C706.596 118.669 701.201 119.812 695.149 119.77C689.267 119.727 684.337 118.458 680.359 115.961C676.382 113.464 673.292 110.163 671.092 106.059C668.891 101.911 667.452 97.3411 666.775 92.3477C666.141 87.3542 666.204 82.3184 666.966 77.2402L668.553 67.4014C669.399 61.9847 670.923 56.7373 673.123 51.6592C675.366 46.5387 678.222 41.9473 681.692 37.8848C685.205 33.8223 689.331 30.6273 694.07 28.2998C698.852 25.93 704.248 24.7663 710.257 24.8086C716.181 24.8509 721.111 26.1204 725.047 28.6172C729.025 31.1139 732.114 34.4147 734.314 38.5195C736.515 42.6243 737.933 47.1947 738.567 52.2305C739.202 57.224 739.16 62.2598 738.44 67.3379ZM729.236 77.2402L730.887 67.2109C731.479 63.1908 731.627 59.1283 731.331 55.0234C731.077 50.8763 730.188 47.0465 728.665 43.5342C727.184 40.0218 724.92 37.1865 721.873 35.0283C718.869 32.8701 714.891 31.7487 709.939 31.6641C705.031 31.6217 700.63 32.6162 696.736 34.6475C692.885 36.6364 689.563 39.3659 686.771 42.8359C683.978 46.2637 681.692 50.0934 679.915 54.3252C678.18 58.557 676.953 62.8522 676.233 67.2109L674.583 77.2402C673.991 81.2181 673.821 85.2806 674.075 89.4277C674.371 93.5749 675.26 97.4046 676.741 100.917C678.265 104.429 680.529 107.286 683.533 109.486C686.58 111.687 690.537 112.829 695.403 112.914C700.439 112.999 704.883 112.025 708.733 109.994C712.627 107.963 715.97 105.233 718.763 101.806C721.556 98.3779 723.82 94.527 725.555 90.2529C727.29 85.9788 728.517 81.6413 729.236 77.2402ZM766.269 26.0146H773.632L792.675 107.328L839.902 26.1416H847.9L794.072 118.5H788.232L766.269 26.0146ZM763.793 26.0781H770.585L762.397 78.3193L755.414 118.5H747.797L763.793 26.0781ZM843.393 26.0781H850.185L834.189 118.5H826.572L833.617 77.8115L843.393 26.0781ZM871.729 26.0781H900.357C905.816 26.2051 910.64 27.3053 914.83 29.3789C919.061 31.4525 922.256 34.457 924.415 38.3926C926.615 42.3281 927.356 47.1947 926.636 52.9922C926.044 57.6895 924.584 61.752 922.256 65.1797C919.929 68.5651 916.988 71.4004 913.433 73.6855C909.921 75.9284 906.028 77.6846 901.753 78.9541L898.96 79.9697H867.286L868.301 73.3047L893.882 73.3682C897.987 73.3258 901.817 72.4795 905.372 70.8291C908.926 69.1787 911.91 66.8512 914.322 63.8467C916.734 60.7998 918.278 57.1816 918.956 52.9922C919.633 48.6758 919.231 45.0365 917.75 42.0742C916.311 39.112 914.047 36.848 910.958 35.2822C907.911 33.7165 904.335 32.8913 900.23 32.8066H878.204L863.35 118.5H855.733L871.729 26.0781ZM911.275 118.5L895.152 77.1768L902.896 77.0498L919.4 117.611L919.336 118.5H911.275Z"/>
</mask>
<path d="M570.621 111.835L569.478 118.5H522.95L524.029 111.835H570.621ZM541.231 26.0781L525.235 118.5H517.554L533.55 26.0781H541.231ZM653.991 67.3379L652.404 77.1768C651.515 82.5934 649.971 87.862 647.77 92.9824C645.612 98.0605 642.777 102.631 639.264 106.693C635.794 110.756 631.668 113.972 626.887 116.342C622.147 118.669 616.751 119.812 610.7 119.77C604.818 119.727 599.888 118.458 595.91 115.961C591.932 113.464 588.843 110.163 586.642 106.059C584.442 101.911 583.003 97.3411 582.326 92.3477C581.691 87.3542 581.755 82.3184 582.516 77.2402L584.103 67.4014C584.95 61.9847 586.473 56.7373 588.674 51.6592C590.916 46.5387 593.773 41.9473 597.243 37.8848C600.755 33.8223 604.881 30.6273 609.621 28.2998C614.403 25.93 619.798 24.7663 625.807 24.8086C631.732 24.8509 636.662 26.1204 640.597 28.6172C644.575 31.1139 647.664 34.4147 649.865 38.5195C652.066 42.6243 653.483 47.1947 654.118 52.2305C654.753 57.224 654.71 62.2598 653.991 67.3379ZM644.787 77.2402L646.437 67.2109C647.03 63.1908 647.178 59.1283 646.882 55.0234C646.628 50.8763 645.739 47.0465 644.216 43.5342C642.734 40.0218 640.47 37.1865 637.424 35.0283C634.419 32.8701 630.441 31.7487 625.49 31.6641C620.581 31.6217 616.18 32.6162 612.287 34.6475C608.436 36.6364 605.114 39.3659 602.321 42.8359C599.528 46.2637 597.243 50.0934 595.466 54.3252C593.731 58.557 592.503 62.8522 591.784 67.2109L590.134 77.2402C589.541 81.2181 589.372 85.2806 589.626 89.4277C589.922 93.5749 590.811 97.4046 592.292 100.917C593.815 104.429 596.079 107.286 599.084 109.486C602.131 111.687 606.087 112.829 610.954 112.914C615.99 112.999 620.433 112.025 624.284 109.994C628.177 107.963 631.52 105.233 634.313 101.806C637.106 98.3779 639.37 94.527 641.105 90.2529C642.84 85.9788 644.067 81.6413 644.787 77.2402ZM738.44 67.3379L736.854 77.1768C735.965 82.5934 734.42 87.862 732.22 92.9824C730.062 98.0605 727.226 102.631 723.714 106.693C720.244 110.756 716.118 113.972 711.336 116.342C706.596 118.669 701.201 119.812 695.149 119.77C689.267 119.727 684.337 118.458 680.359 115.961C676.382 113.464 673.292 110.163 671.092 106.059C668.891 101.911 667.452 97.3411 666.775 92.3477C666.141 87.3542 666.204 82.3184 666.966 77.2402L668.553 67.4014C669.399 61.9847 670.923 56.7373 673.123 51.6592C675.366 46.5387 678.222 41.9473 681.692 37.8848C685.205 33.8223 689.331 30.6273 694.07 28.2998C698.852 25.93 704.248 24.7663 710.257 24.8086C716.181 24.8509 721.111 26.1204 725.047 28.6172C729.025 31.1139 732.114 34.4147 734.314 38.5195C736.515 42.6243 737.933 47.1947 738.567 52.2305C739.202 57.224 739.16 62.2598 738.44 67.3379ZM729.236 77.2402L730.887 67.2109C731.479 63.1908 731.627 59.1283 731.331 55.0234C731.077 50.8763 730.188 47.0465 728.665 43.5342C727.184 40.0218 724.92 37.1865 721.873 35.0283C718.869 32.8701 714.891 31.7487 709.939 31.6641C705.031 31.6217 700.63 32.6162 696.736 34.6475C692.885 36.6364 689.563 39.3659 686.771 42.8359C683.978 46.2637 681.692 50.0934 679.915 54.3252C678.18 58.557 676.953 62.8522 676.233 67.2109L674.583 77.2402C673.991 81.2181 673.821 85.2806 674.075 89.4277C674.371 93.5749 675.26 97.4046 676.741 100.917C678.265 104.429 680.529 107.286 683.533 109.486C686.58 111.687 690.537 112.829 695.403 112.914C700.439 112.999 704.883 112.025 708.733 109.994C712.627 107.963 715.97 105.233 718.763 101.806C721.556 98.3779 723.82 94.527 725.555 90.2529C727.29 85.9788 728.517 81.6413 729.236 77.2402ZM766.269 26.0146H773.632L792.675 107.328L839.902 26.1416H847.9L794.072 118.5H788.232L766.269 26.0146ZM763.793 26.0781H770.585L762.397 78.3193L755.414 118.5H747.797L763.793 26.0781ZM843.393 26.0781H850.185L834.189 118.5H826.572L833.617 77.8115L843.393 26.0781ZM871.729 26.0781H900.357C905.816 26.2051 910.64 27.3053 914.83 29.3789C919.061 31.4525 922.256 34.457 924.415 38.3926C926.615 42.3281 927.356 47.1947 926.636 52.9922C926.044 57.6895 924.584 61.752 922.256 65.1797C919.929 68.5651 916.988 71.4004 913.433 73.6855C909.921 75.9284 906.028 77.6846 901.753 78.9541L898.96 79.9697H867.286L868.301 73.3047L893.882 73.3682C897.987 73.3258 901.817 72.4795 905.372 70.8291C908.926 69.1787 911.91 66.8512 914.322 63.8467C916.734 60.7998 918.278 57.1816 918.956 52.9922C919.633 48.6758 919.231 45.0365 917.75 42.0742C916.311 39.112 914.047 36.848 910.958 35.2822C907.911 33.7165 904.335 32.8913 900.23 32.8066H878.204L863.35 118.5H855.733L871.729 26.0781ZM911.275 118.5L895.152 77.1768L902.896 77.0498L919.4 117.611L919.336 118.5H911.275Z" fill="white"/>
<path d="M570.621 111.835L575.549 112.68L576.551 106.835H570.621V111.835ZM569.478 118.5V123.5H573.694L574.406 119.345L569.478 118.5ZM522.95 118.5L518.014 117.701L517.075 123.5H522.95V118.5ZM524.029 111.835V106.835H519.773L519.093 111.036L524.029 111.835ZM541.231 26.0781L546.158 26.9308L547.171 21.0781H541.231V26.0781ZM525.235 118.5V123.5H529.444L530.162 119.353L525.235 118.5ZM517.554 118.5L512.627 117.647L511.615 123.5H517.554V118.5ZM533.55 26.0781V21.0781H529.341L528.624 25.2254L533.55 26.0781ZM570.621 111.835L565.693 110.99L564.55 117.655L569.478 118.5L574.406 119.345L575.549 112.68L570.621 111.835ZM569.478 118.5V113.5H522.95V118.5V123.5H569.478V118.5ZM522.95 118.5L527.885 119.299L528.965 112.634L524.029 111.835L519.093 111.036L518.014 117.701L522.95 118.5ZM524.029 111.835V116.835H570.621V111.835V106.835H524.029V111.835ZM541.231 26.0781L536.304 25.2254L520.308 117.647L525.235 118.5L530.162 119.353L546.158 26.9308L541.231 26.0781ZM525.235 118.5V113.5H517.554V118.5V123.5H525.235V118.5ZM517.554 118.5L522.481 119.353L538.477 26.9308L533.55 26.0781L528.624 25.2254L512.627 117.647L517.554 118.5ZM533.55 26.0781V31.0781H541.231V26.0781V21.0781H533.55V26.0781ZM653.991 67.3379L658.927 68.134L658.935 68.0867L658.942 68.0392L653.991 67.3379ZM652.404 77.1768L657.338 77.9862L657.34 77.9729L652.404 77.1768ZM647.77 92.9824L643.177 91.0082L643.173 91.0175L643.169 91.0267L647.77 92.9824ZM639.264 106.693L635.482 103.423L635.472 103.435L635.463 103.446L639.264 106.693ZM626.886 116.342L629.09 120.83L629.099 120.826L629.107 120.822L626.886 116.342ZM610.7 119.77L610.664 124.769L610.665 124.769L610.7 119.77ZM586.642 106.059L582.226 108.402L582.231 108.412L582.236 108.421L586.642 106.059ZM582.326 92.3477L577.366 92.9782L577.368 92.9988L577.371 93.0195L582.326 92.3477ZM582.516 77.2402L577.58 76.4441L577.576 76.4713L577.572 76.4985L582.516 77.2402ZM584.103 67.4014L589.04 68.1975L589.041 68.1854L589.043 68.1732L584.103 67.4014ZM588.674 51.6592L584.094 49.6531L584.09 49.6621L584.086 49.6711L588.674 51.6592ZM597.243 37.8848L593.461 34.6146L593.451 34.6259L593.441 34.6373L597.243 37.8848ZM609.621 28.2998L611.825 32.7879L611.833 32.7839L611.841 32.7798L609.621 28.2998ZM625.807 24.8086L625.843 19.8087L625.843 19.8087L625.807 24.8086ZM640.597 28.6172L637.919 32.8392L637.929 32.8457L637.939 32.8521L640.597 28.6172ZM654.118 52.2305L649.157 52.8558L649.158 52.861L654.118 52.2305ZM644.787 77.2402L639.853 76.4284L639.852 76.4336L644.787 77.2402ZM646.437 67.2109L651.371 68.0228L651.378 67.9814L651.384 67.9399L646.437 67.2109ZM646.882 55.0234L641.891 55.329L641.893 55.3562L641.895 55.3833L646.882 55.0234ZM644.216 43.5342L639.608 45.4769L639.618 45.5004L639.628 45.5238L644.216 43.5342ZM637.424 35.0283L634.507 39.0892L634.52 39.0989L634.534 39.1084L637.424 35.0283ZM625.49 31.6641L625.575 26.6648L625.554 26.6644L625.533 26.6642L625.49 31.6641ZM612.287 34.6475L614.581 39.0899L614.591 39.0852L614.6 39.0804L612.287 34.6475ZM602.321 42.8359L606.197 45.9943L606.207 45.9827L606.216 45.971L602.321 42.8359ZM595.466 54.3252L590.856 52.389L590.847 52.4087L590.839 52.4284L595.466 54.3252ZM591.784 67.2109L586.851 66.3967L586.85 66.3991L591.784 67.2109ZM590.134 77.2402L585.2 76.4284L585.194 76.466L585.188 76.5037L590.134 77.2402ZM589.626 89.4277L584.635 89.7333L584.637 89.7586L584.638 89.784L589.626 89.4277ZM592.292 100.917L587.685 102.86L587.695 102.883L587.705 102.907L592.292 100.917ZM599.084 109.486L596.129 113.52L596.143 113.53L596.156 113.54L599.084 109.486ZM610.954 112.914L610.867 117.913L610.87 117.913L610.954 112.914ZM624.284 109.994L621.971 105.561L621.961 105.566L621.951 105.572L624.284 109.994ZM653.991 67.3379L649.055 66.5417L647.468 76.3806L652.404 77.1768L657.34 77.9729L658.927 68.134L653.991 67.3379ZM652.404 77.1768L647.47 76.3673C646.648 81.3772 645.219 86.255 643.177 91.0082L647.77 92.9824L652.364 94.9566C654.722 89.4689 656.383 83.8097 657.338 77.9862L652.404 77.1768ZM647.77 92.9824L643.169 91.0267C641.208 95.6401 638.645 99.7644 635.482 103.423L639.264 106.693L643.047 109.964C646.908 105.497 650.016 100.481 652.372 94.9381L647.77 92.9824ZM639.264 106.693L635.463 103.446C632.431 106.996 628.842 109.792 624.666 111.862L626.886 116.342L629.107 120.822C634.494 118.152 639.158 114.516 643.066 109.941L639.264 106.693ZM626.886 116.342L624.683 111.854C620.735 113.792 616.124 114.807 610.735 114.77L610.7 119.77L610.665 124.769C617.379 124.816 623.559 123.546 629.09 120.83L626.886 116.342ZM610.7 119.77L610.736 114.77C605.549 114.732 601.584 113.619 598.568 111.726L595.91 115.961L593.252 120.196C598.192 123.297 604.087 124.722 610.664 124.769L610.7 119.77ZM595.91 115.961L598.568 111.726C595.319 109.687 592.836 107.029 591.049 103.696L586.642 106.059L582.236 108.421C584.85 113.298 588.545 117.241 593.252 120.196L595.91 115.961ZM586.642 106.059L591.059 103.715C589.155 100.126 587.884 96.1278 587.281 91.6758L582.326 92.3477L577.371 93.0195C578.122 98.5545 579.729 103.697 582.226 108.402L586.642 106.059ZM582.326 92.3477L587.286 91.7171C586.71 87.1888 586.766 82.6148 587.461 77.9819L582.516 77.2402L577.572 76.4985C576.743 82.022 576.672 87.5196 577.366 92.9782L582.326 92.3477ZM582.516 77.2402L587.453 78.0364L589.04 68.1975L584.103 67.4014L579.167 66.6052L577.58 76.4441L582.516 77.2402ZM584.103 67.4014L589.043 68.1732C589.824 63.1793 591.228 58.3402 593.261 53.6472L588.674 51.6592L584.086 49.6711C581.718 55.1344 580.076 60.7901 579.163 66.6295L584.103 67.4014ZM588.674 51.6592L593.254 53.6653C595.309 48.9736 597.908 44.8044 601.045 41.1322L597.243 37.8848L593.441 34.6373C589.638 39.0901 586.524 44.1038 584.094 49.6531L588.674 51.6592ZM597.243 37.8848L601.025 41.1549C604.106 37.5913 607.698 34.8143 611.825 32.7879L609.621 28.2998L607.417 23.8118C602.064 26.4403 597.404 30.0532 593.461 34.6146L597.243 37.8848ZM609.621 28.2998L611.841 32.7798C615.838 30.799 620.446 29.771 625.772 29.8085L625.807 24.8086L625.843 19.8087C619.151 19.7616 612.967 21.0611 607.401 23.8198L609.621 28.2998ZM625.807 24.8086L625.772 29.8085C631.011 29.8459 634.962 30.9636 637.919 32.8392L640.597 28.6172L643.276 24.3951C638.361 21.2773 632.453 19.8559 625.843 19.8087L625.807 24.8086ZM640.597 28.6172L637.939 32.8521C641.188 34.8912 643.672 37.5493 645.458 40.8819L649.865 38.5195L654.272 36.1572C651.657 31.2802 647.963 27.3367 643.256 24.3823L640.597 28.6172ZM649.865 38.5195L645.458 40.8819C647.344 44.4 648.592 48.3733 649.157 52.8558L654.118 52.2305L659.079 51.6052C658.374 46.016 656.787 40.8487 654.272 36.1572L649.865 38.5195ZM654.118 52.2305L649.158 52.861C649.735 57.4037 649.698 61.9916 649.04 66.6366L653.991 67.3379L658.942 68.0392C659.722 62.528 659.77 57.0442 659.078 51.5999L654.118 52.2305ZM644.787 77.2402L649.721 78.0521L651.371 68.0228L646.437 67.2109L641.504 66.3991L639.853 76.4284L644.787 77.2402ZM646.437 67.2109L651.384 67.9399C652.03 63.5547 652.191 59.127 651.869 54.6635L646.882 55.0234L641.895 55.3833C642.165 59.1295 642.029 62.8268 641.491 66.482L646.437 67.2109ZM646.882 55.0234L651.872 54.7179C651.586 50.0398 650.577 45.6343 648.803 41.5446L644.216 43.5342L639.628 45.5238C640.902 48.4588 641.67 51.7128 641.891 55.329L646.882 55.0234ZM644.216 43.5342L648.823 41.5914C646.988 37.2395 644.137 33.6567 640.314 30.9482L637.424 35.0283L634.534 39.1084C636.803 40.7163 638.481 42.8042 639.608 45.4769L644.216 43.5342ZM637.424 35.0283L640.341 30.9674C636.272 28.0447 631.205 26.761 625.575 26.6648L625.49 31.6641L625.405 36.6633C629.677 36.7364 632.566 37.6955 634.507 39.0892L637.424 35.0283ZM625.49 31.6641L625.533 26.6642C619.903 26.6157 614.677 27.761 609.974 30.2145L612.287 34.6475L614.6 39.0804C617.684 37.4714 621.26 36.6278 625.447 36.6639L625.49 31.6641ZM612.287 34.6475L609.992 30.205C605.505 32.5225 601.643 35.7038 598.426 39.7009L602.321 42.8359L606.216 45.971C608.585 43.028 611.367 40.7503 614.581 39.0899L612.287 34.6475ZM602.321 42.8359L598.445 39.6776C595.339 43.4895 592.811 47.7338 590.856 52.389L595.466 54.3252L600.076 56.2614C601.675 52.4531 603.717 49.0379 606.197 45.9943L602.321 42.8359ZM595.466 54.3252L590.839 52.4284C588.967 56.996 587.634 61.6538 586.851 66.3967L591.784 67.2109L596.717 68.0252C597.373 64.0506 598.495 60.1179 600.092 56.222L595.466 54.3252ZM591.784 67.2109L586.85 66.3991L585.2 76.4284L590.134 77.2402L595.067 78.0521L596.718 68.0228L591.784 67.2109ZM590.134 77.2402L585.188 76.5037C584.543 80.8376 584.361 85.2497 584.635 89.7333L589.626 89.4277L594.616 89.1222C594.383 85.3115 594.54 81.5986 595.079 77.9768L590.134 77.2402ZM589.626 89.4277L584.638 89.784C584.97 94.4278 585.972 98.7992 587.685 102.86L592.292 100.917L596.899 98.9742C595.649 96.01 594.874 92.722 594.613 89.0715L589.626 89.4277ZM592.292 100.917L587.705 102.907C589.571 107.209 592.388 110.78 596.129 113.52L599.084 109.486L602.038 105.452C599.77 103.792 598.06 101.649 596.879 98.9274L592.292 100.917ZM599.084 109.486L596.156 113.54C600.245 116.493 605.279 117.816 610.867 117.913L610.954 112.914L611.041 107.915C606.896 107.843 604.016 106.881 602.011 105.433L599.084 109.486ZM610.954 112.914L610.87 117.913C616.614 118.01 621.912 116.898 626.617 114.417L624.284 109.994L621.951 105.572C618.954 107.153 615.365 107.987 611.038 107.915L610.954 112.914ZM624.284 109.994L626.597 114.427C631.097 112.079 634.97 108.915 638.189 104.964L634.313 101.806L630.437 98.6473C628.07 101.552 625.258 103.846 621.971 105.561L624.284 109.994ZM634.313 101.806L638.189 104.964C641.31 101.134 643.824 96.8488 645.738 92.1336L641.105 90.2529L636.472 88.3723C634.916 92.2052 632.902 95.6219 630.437 98.6473L634.313 101.806ZM641.105 90.2529L645.738 92.1336C647.609 87.5257 648.94 82.8285 649.721 78.0468L644.787 77.2402L639.852 76.4336C639.195 80.4541 638.072 84.4319 636.472 88.3723L641.105 90.2529ZM738.44 67.3379L743.377 68.134L743.384 68.0867L743.391 68.0392L738.44 67.3379ZM736.854 77.1768L741.788 77.9862L741.79 77.9729L736.854 77.1768ZM732.22 92.9824L727.626 91.0082L727.622 91.0175L727.618 91.0267L732.22 92.9824ZM723.714 106.693L719.932 103.423L719.922 103.435L719.912 103.446L723.714 106.693ZM711.336 116.342L713.54 120.83L713.548 120.826L713.556 120.822L711.336 116.342ZM695.149 119.77L695.113 124.769L695.114 124.769L695.149 119.77ZM671.092 106.059L666.675 108.402L666.68 108.412L666.685 108.421L671.092 106.059ZM666.775 92.3477L661.815 92.9782L661.818 92.9988L661.821 93.0195L666.775 92.3477ZM666.966 77.2402L662.03 76.4441L662.025 76.4713L662.021 76.4985L666.966 77.2402ZM668.553 67.4014L673.489 68.1975L673.491 68.1854L673.493 68.1732L668.553 67.4014ZM673.123 51.6592L668.543 49.6531L668.539 49.6621L668.535 49.6711L673.123 51.6592ZM681.692 37.8848L677.91 34.6146L677.9 34.6259L677.891 34.6373L681.692 37.8848ZM694.07 28.2998L696.274 32.7879L696.282 32.7839L696.291 32.7798L694.07 28.2998ZM710.257 24.8086L710.293 19.8087L710.292 19.8087L710.257 24.8086ZM725.047 28.6172L722.368 32.8392L722.379 32.8457L722.389 32.8521L725.047 28.6172ZM738.567 52.2305L733.607 52.8558L733.607 52.861L738.567 52.2305ZM729.236 77.2402L724.303 76.4284L724.302 76.4336L729.236 77.2402ZM730.887 67.2109L735.82 68.0228L735.827 67.9814L735.833 67.9399L730.887 67.2109ZM731.331 55.0234L726.34 55.329L726.342 55.3562L726.344 55.3833L731.331 55.0234ZM728.665 43.5342L724.058 45.4769L724.068 45.5004L724.078 45.5238L728.665 43.5342ZM721.873 35.0283L718.956 39.0892L718.969 39.0989L718.983 39.1084L721.873 35.0283ZM709.939 31.6641L710.025 26.6648L710.004 26.6644L709.983 26.6642L709.939 31.6641ZM696.736 34.6475L699.031 39.0899L699.04 39.0852L699.049 39.0804L696.736 34.6475ZM686.771 42.8359L690.647 45.9943L690.656 45.9827L690.666 45.971L686.771 42.8359ZM679.915 54.3252L675.305 52.389L675.297 52.4087L675.289 52.4284L679.915 54.3252ZM676.233 67.2109L671.3 66.3967L671.3 66.3991L676.233 67.2109ZM674.583 77.2402L669.649 76.4284L669.643 76.466L669.638 76.5037L674.583 77.2402ZM674.075 89.4277L669.085 89.7333L669.086 89.7586L669.088 89.784L674.075 89.4277ZM676.741 100.917L672.134 102.86L672.144 102.883L672.154 102.907L676.741 100.917ZM683.533 109.486L680.579 113.52L680.592 113.53L680.606 113.54L683.533 109.486ZM695.403 112.914L695.316 117.913L695.319 117.913L695.403 112.914ZM708.733 109.994L706.421 105.561L706.411 105.566L706.401 105.572L708.733 109.994ZM738.44 67.3379L733.504 66.5417L731.917 76.3806L736.854 77.1768L741.79 77.9729L743.377 68.134L738.44 67.3379ZM736.854 77.1768L731.919 76.3673C731.098 81.3772 729.669 86.255 727.626 91.0082L732.22 92.9824L736.814 94.9566C739.172 89.4689 740.832 83.8097 741.788 77.9862L736.854 77.1768ZM732.22 92.9824L727.618 91.0267C725.657 95.6401 723.095 99.7644 719.932 103.423L723.714 106.693L727.496 109.964C731.358 105.497 734.466 100.481 736.821 94.9381L732.22 92.9824ZM723.714 106.693L719.912 103.446C716.88 106.996 713.292 109.792 709.116 111.862L711.336 116.342L713.556 120.822C718.944 118.152 723.608 114.516 727.516 109.941L723.714 106.693ZM711.336 116.342L709.132 111.854C705.184 113.792 700.574 114.807 695.184 114.77L695.149 119.77L695.114 124.769C701.828 124.816 708.008 123.546 713.54 120.83L711.336 116.342ZM695.149 119.77L695.185 114.77C689.999 114.732 686.033 113.619 683.017 111.726L680.359 115.961L677.701 120.196C682.642 123.297 688.536 124.722 695.113 124.769L695.149 119.77ZM680.359 115.961L683.017 111.726C679.769 109.687 677.285 107.029 675.499 103.696L671.092 106.059L666.685 108.421C669.3 113.298 672.994 117.241 677.701 120.196L680.359 115.961ZM671.092 106.059L675.509 103.715C673.604 100.126 672.334 96.1278 671.73 91.6758L666.775 92.3477L661.821 93.0195C662.571 98.5545 664.178 103.697 666.675 108.402L671.092 106.059ZM666.775 92.3477L671.735 91.7171C671.16 87.1888 671.216 82.6148 671.911 77.9819L666.966 77.2402L662.021 76.4985C661.193 82.022 661.121 87.5196 661.815 92.9782L666.775 92.3477ZM666.966 77.2402L671.902 78.0364L673.489 68.1975L668.553 67.4014L663.617 66.6052L662.03 76.4441L666.966 77.2402ZM668.553 67.4014L673.493 68.1732C674.273 63.1793 675.677 58.3402 677.711 53.6472L673.123 51.6592L668.535 49.6711C666.168 55.1344 664.525 60.7901 663.613 66.6295L668.553 67.4014ZM673.123 51.6592L677.703 53.6653C679.758 48.9736 682.358 44.8044 685.494 41.1322L681.692 37.8848L677.891 34.6373C674.087 39.0901 670.974 44.1038 668.543 49.6531L673.123 51.6592ZM681.692 37.8848L685.475 41.1549C688.556 37.5913 692.148 34.8143 696.274 32.7879L694.07 28.2998L691.866 23.8118C686.514 26.4403 681.854 30.0532 677.91 34.6146L681.692 37.8848ZM694.07 28.2998L696.291 32.7798C700.288 30.799 704.895 29.771 710.222 29.8085L710.257 24.8086L710.292 19.8087C703.6 19.7616 697.417 21.0611 691.85 23.8198L694.07 28.2998ZM710.257 24.8086L710.221 29.8085C715.461 29.8459 719.412 30.9636 722.368 32.8392L725.047 28.6172L727.725 24.3951C722.811 21.2773 716.902 19.8559 710.293 19.8087L710.257 24.8086ZM725.047 28.6172L722.389 32.8521C725.638 34.8912 728.121 37.5493 729.908 40.8819L734.314 38.5195L738.721 36.1572C736.107 31.2802 732.412 27.3367 727.705 24.3823L725.047 28.6172ZM734.314 38.5195L729.908 40.8819C731.794 44.4 733.042 48.3733 733.607 52.8558L738.567 52.2305L743.528 51.6052C742.824 46.016 741.236 40.8487 738.721 36.1572L734.314 38.5195ZM738.567 52.2305L733.607 52.861C734.185 57.4037 734.148 61.9916 733.49 66.6366L738.44 67.3379L743.391 68.0392C744.172 62.528 744.22 57.0442 743.527 51.5999L738.567 52.2305ZM729.236 77.2402L734.17 78.0521L735.82 68.0228L730.887 67.2109L725.953 66.3991L724.303 76.4284L729.236 77.2402ZM730.887 67.2109L735.833 67.9399C736.48 63.5547 736.64 59.127 736.318 54.6635L731.331 55.0234L726.344 55.3833C726.614 59.1295 726.479 62.8268 725.94 66.482L730.887 67.2109ZM731.331 55.0234L736.322 54.7179C736.035 50.0398 735.026 45.6343 733.252 41.5446L728.665 43.5342L724.078 45.5238C725.351 48.4588 726.119 51.7128 726.34 55.329L731.331 55.0234ZM728.665 43.5342L733.272 41.5914C731.437 37.2395 728.587 33.6567 724.763 30.9482L721.873 35.0283L718.983 39.1084C721.253 40.7163 722.931 42.8042 724.058 45.4769L728.665 43.5342ZM721.873 35.0283L724.79 30.9674C720.721 28.0447 715.655 26.761 710.025 26.6648L709.939 31.6641L709.854 36.6633C714.126 36.7364 717.016 37.6955 718.956 39.0892L721.873 35.0283ZM709.939 31.6641L709.983 26.6642C704.352 26.6157 699.126 27.761 694.424 30.2145L696.736 34.6475L699.049 39.0804C702.133 37.4714 705.709 36.6278 709.896 36.6639L709.939 31.6641ZM696.736 34.6475L694.442 30.205C689.955 32.5225 686.093 35.7038 682.875 39.7009L686.771 42.8359L690.666 45.971C693.034 43.028 695.816 40.7503 699.031 39.0899L696.736 34.6475ZM686.771 42.8359L682.894 39.6776C679.788 43.4895 677.26 47.7338 675.305 52.389L679.915 54.3252L684.525 56.2614C686.124 52.4531 688.167 49.0379 690.647 45.9943L686.771 42.8359ZM679.915 54.3252L675.289 52.4284C673.416 56.996 672.083 61.6538 671.3 66.3967L676.233 67.2109L681.167 68.0252C681.823 64.0506 682.944 60.1179 684.541 56.222L679.915 54.3252ZM676.233 67.2109L671.3 66.3991L669.649 76.4284L674.583 77.2402L679.517 78.0521L681.167 68.0228L676.233 67.2109ZM674.583 77.2402L669.638 76.5037C668.992 80.8376 668.81 85.2497 669.085 89.7333L674.075 89.4277L679.066 89.1222C678.833 85.3115 678.989 81.5986 679.528 77.9768L674.583 77.2402ZM674.075 89.4277L669.088 89.784C669.42 94.4278 670.422 98.7992 672.134 102.86L676.741 100.917L681.348 98.9742C680.098 96.01 679.323 92.722 679.063 89.0715L674.075 89.4277ZM676.741 100.917L672.154 102.907C674.02 107.209 676.838 110.78 680.579 113.52L683.533 109.486L686.488 105.452C684.22 103.792 682.509 101.649 681.328 98.9274L676.741 100.917ZM683.533 109.486L680.606 113.54C684.694 116.493 689.728 117.816 695.316 117.913L695.403 112.914L695.49 107.915C691.345 107.843 688.466 106.881 686.461 105.433L683.533 109.486ZM695.403 112.914L695.319 117.913C701.063 118.01 706.362 116.898 711.066 114.417L708.733 109.994L706.401 105.572C703.403 107.153 699.815 107.987 695.487 107.915L695.403 112.914ZM708.733 109.994L711.046 114.427C715.546 112.079 719.42 108.915 722.639 104.964L718.763 101.806L714.887 98.6473C712.52 101.552 709.707 103.846 706.421 105.561L708.733 109.994ZM718.763 101.806L722.639 104.964C725.76 101.134 728.273 96.8488 730.188 92.1336L725.555 90.2529L720.922 88.3723C719.366 92.2052 717.352 95.6219 714.887 98.6473L718.763 101.806ZM725.555 90.2529L730.188 92.1336C732.058 87.5257 733.389 82.8285 734.171 78.0468L729.236 77.2402L724.302 76.4336C723.645 80.4541 722.521 84.4319 720.922 88.3723L725.555 90.2529ZM766.269 26.0146V21.0146H759.942L761.404 27.1699L766.269 26.0146ZM773.632 26.0146L778.5 24.8745L777.596 21.0146H773.632V26.0146ZM792.675 107.328L787.807 108.468L790.674 120.712L796.997 109.842L792.675 107.328ZM839.902 26.1416V21.1416H837.026L835.58 23.6275L839.902 26.1416ZM847.9 26.1416L852.22 28.6593L856.601 21.1416H847.9V26.1416ZM794.072 118.5V123.5H796.945L798.391 121.018L794.072 118.5ZM788.232 118.5L783.367 119.655L784.28 123.5H788.232V118.5ZM763.793 26.0781V21.0781H759.584L758.866 25.2254L763.793 26.0781ZM770.585 26.0781L775.525 26.8524L776.43 21.0781H770.585V26.0781ZM762.397 78.3193L767.323 79.1754L767.33 79.1345L767.336 79.0936L762.397 78.3193ZM755.414 118.5V123.5H759.62L760.34 119.356L755.414 118.5ZM747.797 118.5L742.87 117.647L741.857 123.5H747.797V118.5ZM843.393 26.0781V21.0781H839.249L838.48 25.1498L843.393 26.0781ZM850.185 26.0781L855.112 26.9308L856.125 21.0781H850.185V26.0781ZM834.189 118.5V123.5H838.398L839.115 119.353L834.189 118.5ZM826.572 118.5L821.645 117.647L820.631 123.5H826.572V118.5ZM833.617 77.8115L828.704 76.8832L828.697 76.9207L828.691 76.9584L833.617 77.8115ZM766.269 26.0146V31.0146H773.632V26.0146V21.0146H766.269V26.0146ZM773.632 26.0146L768.764 27.1548L787.807 108.468L792.675 107.328L797.543 106.188L778.5 24.8745L773.632 26.0146ZM792.675 107.328L796.997 109.842L844.224 28.6557L839.902 26.1416L835.58 23.6275L788.353 104.814L792.675 107.328ZM839.902 26.1416V31.1416H847.9V26.1416V21.1416H839.902V26.1416ZM847.9 26.1416L843.58 23.6239L789.752 115.982L794.072 118.5L798.391 121.018L852.22 28.6593L847.9 26.1416ZM794.072 118.5V113.5H788.232V118.5V123.5H794.072V118.5ZM788.232 118.5L793.096 117.345L771.133 24.8594L766.269 26.0146L761.404 27.1699L783.367 119.655L788.232 118.5ZM763.793 26.0781V31.0781H770.585V26.0781V21.0781H763.793V26.0781ZM770.585 26.0781L765.646 25.3039L757.457 77.5451L762.397 78.3193L767.336 79.0936L775.525 26.8524L770.585 26.0781ZM762.397 78.3193L757.471 77.4633L750.488 117.644L755.414 118.5L760.34 119.356L767.323 79.1754L762.397 78.3193ZM755.414 118.5V113.5H747.797V118.5V123.5H755.414V118.5ZM747.797 118.5L752.724 119.353L768.72 26.9308L763.793 26.0781L758.866 25.2254L742.87 117.647L747.797 118.5ZM843.393 26.0781V31.0781H850.185V26.0781V21.0781H843.393V26.0781ZM850.185 26.0781L845.258 25.2254L829.262 117.647L834.189 118.5L839.115 119.353L855.112 26.9308L850.185 26.0781ZM834.189 118.5V113.5H826.572V118.5V123.5H834.189V118.5ZM826.572 118.5L831.498 119.353L838.544 78.6647L833.617 77.8115L828.691 76.9584L821.645 117.647L826.572 118.5ZM833.617 77.8115L838.53 78.7399L848.306 27.0065L843.393 26.0781L838.48 25.1498L828.704 76.8832L833.617 77.8115ZM871.729 26.0781V21.0781H867.52L866.802 25.2254L871.729 26.0781ZM900.357 26.0781L900.473 21.0795L900.415 21.0781H900.357V26.0781ZM914.83 29.3789L912.612 33.8601L912.621 33.8645L912.63 33.8689L914.83 29.3789ZM924.415 38.3926L920.03 40.7967L920.04 40.8148L920.05 40.8327L924.415 38.3926ZM926.636 52.9922L931.597 53.6179L931.598 53.6079L926.636 52.9922ZM922.256 65.1797L926.377 68.0123L926.385 68.0004L926.393 67.9884L922.256 65.1797ZM913.433 73.6855L916.124 77.8997L916.13 77.8956L916.137 77.8914L913.433 73.6855ZM901.753 78.9541L900.33 74.1611L900.186 74.2038L900.045 74.2551L901.753 78.9541ZM898.96 79.9697V84.9697H899.841L900.669 84.6687L898.96 79.9697ZM867.286 79.9697L862.343 79.2165L861.466 84.9697H867.286V79.9697ZM868.301 73.3047L868.314 68.3047L864.007 68.294L863.358 72.5515L868.301 73.3047ZM893.882 73.3682L893.87 78.3681L893.902 78.3682L893.934 78.3679L893.882 73.3682ZM914.322 63.8467L918.221 66.9768L918.231 66.9636L918.242 66.9502L914.322 63.8467ZM918.956 52.9922L923.892 53.7899L923.893 53.7785L923.895 53.767L918.956 52.9922ZM917.75 42.0742L913.252 44.2587L913.265 44.2846L913.277 44.3103L917.75 42.0742ZM910.958 35.2822L908.672 39.7294L908.685 39.7358L908.697 39.7421L910.958 35.2822ZM900.23 32.8066L900.333 27.8077L900.282 27.8066H900.23V32.8066ZM878.204 32.8066V27.8066H873.996L873.277 31.9527L878.204 32.8066ZM863.35 118.5V123.5H867.558L868.277 119.354L863.35 118.5ZM855.733 118.5L850.806 117.647L849.793 123.5H855.733V118.5ZM911.275 118.5L906.617 120.317L907.859 123.5H911.275V118.5ZM895.152 77.1768L895.07 72.1774L887.88 72.2953L890.494 78.9942L895.152 77.1768ZM902.896 77.0498L907.527 75.1654L906.237 71.9944L902.814 72.0505L902.896 77.0498ZM919.4 117.611L924.387 117.968L924.47 116.806L924.031 115.727L919.4 117.611ZM919.336 118.5V123.5H923.992L924.324 118.856L919.336 118.5ZM871.729 26.0781V31.0781H900.357V26.0781V21.0781H871.729V26.0781ZM900.357 26.0781L900.241 31.0768C905.092 31.1896 909.178 32.1604 912.612 33.8601L914.83 29.3789L917.048 24.8978C912.103 22.4503 906.54 21.2206 900.473 21.0795L900.357 26.0781ZM914.83 29.3789L912.63 33.8689C915.985 35.5129 918.394 37.8117 920.03 40.7967L924.415 38.3926L928.799 35.9884C926.119 31.1024 922.138 27.392 917.03 24.889L914.83 29.3789ZM924.415 38.3926L920.05 40.8327C921.596 43.5977 922.301 47.3228 921.674 52.3765L926.636 52.9922L931.598 53.6079C932.41 47.0665 931.634 41.0585 928.779 35.9524L924.415 38.3926ZM926.636 52.9922L921.676 52.3665C921.168 56.3936 919.945 59.6833 918.12 62.3709L922.256 65.1797L926.393 67.9884C929.223 63.8206 930.92 58.9853 931.597 53.6179L926.636 52.9922ZM922.256 65.1797L918.136 62.347C916.196 65.1694 913.742 67.5431 910.729 69.4797L913.433 73.6855L916.137 77.8914C920.234 75.2577 923.662 71.9608 926.377 68.0123L922.256 65.1797ZM913.433 73.6855L910.742 69.4714C907.65 71.4462 904.188 73.0152 900.33 74.1611L901.753 78.9541L903.177 83.7471C907.867 82.354 912.192 80.4106 916.124 77.8997L913.433 73.6855ZM901.753 78.9541L900.045 74.2551L897.252 75.2708L898.96 79.9697L900.669 84.6687L903.462 83.6531L901.753 78.9541ZM898.96 79.9697V74.9697H867.286V79.9697V84.9697H898.96V79.9697ZM867.286 79.9697L872.229 80.7229L873.244 74.0579L868.301 73.3047L863.358 72.5515L862.343 79.2165L867.286 79.9697ZM868.301 73.3047L868.289 78.3047L893.87 78.3681L893.882 73.3682L893.895 68.3682L868.314 68.3047L868.301 73.3047ZM893.882 73.3682L893.934 78.3679C898.714 78.3186 903.248 77.3277 907.477 75.3641L905.372 70.8291L903.266 66.2941C900.386 67.6313 897.26 68.3331 893.831 68.3684L893.882 73.3682ZM905.372 70.8291L907.477 75.3641C911.717 73.3955 915.318 70.592 918.221 66.9768L914.322 63.8467L910.423 60.7165C908.501 63.1104 906.135 64.9619 903.266 66.2941L905.372 70.8291ZM914.322 63.8467L918.242 66.9502C921.232 63.1735 923.091 58.7424 923.892 53.7899L918.956 52.9922L914.02 52.1945C913.466 55.6208 912.236 58.4261 910.402 60.7432L914.322 63.8467ZM918.956 52.9922L923.895 53.767C924.682 48.7479 924.296 43.9874 922.222 39.8382L917.75 42.0742L913.277 44.3103C914.165 46.0855 914.583 48.6036 914.016 52.2173L918.956 52.9922ZM917.75 42.0742L922.247 39.8897C920.305 35.8921 917.228 32.8546 913.218 30.8224L910.958 35.2822L908.697 39.7421C910.866 40.8414 912.316 42.3319 913.252 44.2587L917.75 42.0742ZM910.958 35.2822L913.243 30.8351C909.399 28.8596 905.049 27.9049 900.333 27.8077L900.23 32.8066L900.127 37.8056C903.621 37.8776 906.423 38.5733 908.672 39.7294L910.958 35.2822ZM900.23 32.8066V27.8066H878.204V32.8066V37.8066H900.23V32.8066ZM878.204 32.8066L873.277 31.9527L858.424 117.646L863.35 118.5L868.277 119.354L883.13 33.6606L878.204 32.8066ZM863.35 118.5V113.5H855.733V118.5V123.5H863.35V118.5ZM855.733 118.5L860.66 119.353L876.656 26.9308L871.729 26.0781L866.802 25.2254L850.806 117.647L855.733 118.5ZM911.275 118.5L915.933 116.683L899.81 75.3593L895.152 77.1768L890.494 78.9942L906.617 120.317L911.275 118.5ZM895.152 77.1768L895.234 82.1761L902.978 82.0491L902.896 77.0498L902.814 72.0505L895.07 72.1774L895.152 77.1768ZM902.896 77.0498L898.265 78.9342L914.769 119.496L919.4 117.611L924.031 115.727L907.527 75.1654L902.896 77.0498ZM919.4 117.611L914.413 117.255L914.349 118.144L919.336 118.5L924.324 118.856L924.387 117.968L919.4 117.611ZM919.336 118.5V113.5H911.275V118.5V123.5H919.336V118.5Z" fill="white" mask="url(#path-2-outside-1_2604_36)"/>
<mask id="path-4-outside-2_2604_36" maskUnits="userSpaceOnUse" x="0" y="22.5" width="451" height="106" fill="black">
<rect fill="white" y="22.5" width="451" height="106"/>
<path d="M55.6533 96.9346C55.6533 95.4958 55.4417 94.2051 55.0186 93.0625C54.5954 91.8776 53.8125 90.7773 52.6699 89.7617C51.5273 88.7461 49.877 87.7305 47.7188 86.7148C45.6029 85.6569 42.8099 84.5566 39.3398 83.4141C35.2773 82.0599 31.363 80.5365 27.5967 78.8438C23.8304 77.1087 20.4661 75.0986 17.5039 72.8135C14.5417 70.486 12.193 67.7777 10.458 64.6885C8.72298 61.557 7.85547 57.9176 7.85547 53.7705C7.85547 49.7926 8.74414 46.2168 10.5215 43.043C12.2988 39.8268 14.7744 37.0973 17.9482 34.8545C21.1644 32.5693 24.9307 30.8343 29.2471 29.6494C33.5635 28.4222 38.2819 27.8086 43.4023 27.8086C50.1732 27.8086 56.14 28.9935 61.3027 31.3633C66.5078 33.6908 70.5703 37.0127 73.4902 41.3291C76.4525 45.6032 77.9336 50.6602 77.9336 56.5H55.7803C55.7803 54.1725 55.2936 52.1201 54.3203 50.3428C53.3893 48.5654 51.9717 47.1689 50.0674 46.1533C48.1631 45.1377 45.7721 44.6299 42.8945 44.6299C40.1016 44.6299 37.7529 45.0531 35.8486 45.8994C33.9443 46.7458 32.5055 47.8883 31.5322 49.3271C30.5589 50.7236 30.0723 52.2682 30.0723 53.9609C30.0723 55.3574 30.4531 56.627 31.2148 57.7695C32.0189 58.8698 33.1403 59.9066 34.5791 60.8799C36.0602 61.8532 37.8376 62.7842 39.9111 63.6729C42.027 64.5615 44.3968 65.429 47.0205 66.2754C51.9294 67.8411 56.2881 69.5973 60.0967 71.5439C63.9476 73.4482 67.1849 75.6276 69.8086 78.082C72.4746 80.4941 74.4847 83.2448 75.8389 86.334C77.2354 89.4232 77.9336 92.9144 77.9336 96.8076C77.9336 100.955 77.1296 104.636 75.5215 107.853C73.9134 111.069 71.6071 113.798 68.6025 116.041C65.598 118.242 62.001 119.913 57.8115 121.056C53.6221 122.198 48.946 122.77 43.7832 122.77C39.0436 122.77 34.3675 122.177 29.7549 120.992C25.1846 119.765 21.0374 117.903 17.3135 115.406C13.5895 112.867 10.6061 109.63 8.36328 105.694C6.16276 101.716 5.0625 96.998 5.0625 91.5391H27.4062C27.4062 94.2474 27.766 96.5326 28.4854 98.3945C29.2048 100.257 30.2627 101.759 31.6592 102.901C33.0557 104.002 34.7695 104.806 36.8008 105.313C38.832 105.779 41.1595 106.012 43.7832 106.012C46.6185 106.012 48.9036 105.61 50.6387 104.806C52.3737 103.959 53.6432 102.859 54.4473 101.505C55.2513 100.108 55.6533 98.585 55.6533 96.9346ZM140.674 29.0781V121.5H118.394V29.0781H140.674ZM168.477 29.0781V46.2803H91.2256V29.0781H168.477ZM260.86 73.4482V77.1934C260.86 84.2604 259.866 90.6081 257.877 96.2363C255.93 101.822 253.159 106.604 249.562 110.582C245.965 114.518 241.712 117.543 236.803 119.659C231.894 121.733 226.477 122.77 220.553 122.77C214.586 122.77 209.127 121.733 204.176 119.659C199.267 117.543 194.993 114.518 191.354 110.582C187.757 106.604 184.964 101.822 182.975 96.2363C181.028 90.6081 180.055 84.2604 180.055 77.1934V73.4482C180.055 66.3812 181.028 60.0335 182.975 54.4053C184.964 48.777 187.735 43.9951 191.29 40.0596C194.887 36.0817 199.14 33.056 204.049 30.9824C209 28.8665 214.459 27.8086 220.426 27.8086C226.35 27.8086 231.767 28.8665 236.676 30.9824C241.627 33.056 245.901 36.0817 249.498 40.0596C253.095 43.9951 255.888 48.777 257.877 54.4053C259.866 60.0335 260.86 66.3812 260.86 73.4482ZM238.263 77.1934V73.3213C238.263 68.751 237.861 64.7308 237.057 61.2607C236.295 57.7484 235.152 54.8073 233.629 52.4375C232.105 50.0677 230.222 48.2904 227.979 47.1055C225.779 45.8783 223.261 45.2646 220.426 45.2646C217.464 45.2646 214.882 45.8783 212.682 47.1055C210.481 48.2904 208.64 50.0677 207.159 52.4375C205.678 54.8073 204.557 57.7484 203.795 61.2607C203.076 64.7308 202.716 68.751 202.716 73.3213V77.1934C202.716 81.7214 203.076 85.7415 203.795 89.2539C204.557 92.724 205.678 95.665 207.159 98.0771C208.683 100.489 210.545 102.309 212.745 103.536C214.988 104.763 217.59 105.377 220.553 105.377C223.388 105.377 225.906 104.763 228.106 103.536C230.307 102.309 232.148 100.489 233.629 98.0771C235.152 95.665 236.295 92.724 237.057 89.2539C237.861 85.7415 238.263 81.7214 238.263 77.1934ZM278.913 29.0781H315.285C322.395 29.0781 328.573 30.1361 333.82 32.252C339.068 34.3678 343.109 37.4993 345.944 41.6465C348.822 45.7936 350.261 50.9141 350.261 57.0078C350.261 62.2975 349.436 66.7197 347.785 70.2744C346.135 73.8291 343.828 76.7702 340.866 79.0977C337.946 81.3828 334.54 83.266 330.646 84.7471L323.347 88.873H292.814L292.688 71.6709H315.285C318.12 71.6709 320.469 71.1631 322.331 70.1475C324.193 69.1318 325.59 67.693 326.521 65.8311C327.494 63.9268 327.98 61.6628 327.98 59.0391C327.98 56.373 327.494 54.0879 326.521 52.1836C325.547 50.2793 324.108 48.8193 322.204 47.8037C320.342 46.7881 318.036 46.2803 315.285 46.2803H301.193V121.5H278.913V29.0781ZM329.504 121.5L309.064 80.6211L332.678 80.4941L353.371 120.548V121.5H329.504ZM383.929 29.0781L400.94 69.1953L418.016 29.0781H442.01L412.303 88.3018V121.5H389.642V88.3018L359.871 29.0781H383.929Z"/>
</mask>
<path d="M55.6533 96.9346C55.6533 95.4958 55.4417 94.2051 55.0186 93.0625C54.5954 91.8776 53.8125 90.7773 52.6699 89.7617C51.5273 88.7461 49.877 87.7305 47.7188 86.7148C45.6029 85.6569 42.8099 84.5566 39.3398 83.4141C35.2773 82.0599 31.363 80.5365 27.5967 78.8438C23.8304 77.1087 20.4661 75.0986 17.5039 72.8135C14.5417 70.486 12.193 67.7777 10.458 64.6885C8.72298 61.557 7.85547 57.9176 7.85547 53.7705C7.85547 49.7926 8.74414 46.2168 10.5215 43.043C12.2988 39.8268 14.7744 37.0973 17.9482 34.8545C21.1644 32.5693 24.9307 30.8343 29.2471 29.6494C33.5635 28.4222 38.2819 27.8086 43.4023 27.8086C50.1732 27.8086 56.14 28.9935 61.3027 31.3633C66.5078 33.6908 70.5703 37.0127 73.4902 41.3291C76.4525 45.6032 77.9336 50.6602 77.9336 56.5H55.7803C55.7803 54.1725 55.2936 52.1201 54.3203 50.3428C53.3893 48.5654 51.9717 47.1689 50.0674 46.1533C48.1631 45.1377 45.7721 44.6299 42.8945 44.6299C40.1016 44.6299 37.7529 45.0531 35.8486 45.8994C33.9443 46.7458 32.5055 47.8883 31.5322 49.3271C30.5589 50.7236 30.0723 52.2682 30.0723 53.9609C30.0723 55.3574 30.4531 56.627 31.2148 57.7695C32.0189 58.8698 33.1403 59.9066 34.5791 60.8799C36.0602 61.8532 37.8376 62.7842 39.9111 63.6729C42.027 64.5615 44.3968 65.429 47.0205 66.2754C51.9294 67.8411 56.2881 69.5973 60.0967 71.5439C63.9476 73.4482 67.1849 75.6276 69.8086 78.082C72.4746 80.4941 74.4847 83.2448 75.8389 86.334C77.2354 89.4232 77.9336 92.9144 77.9336 96.8076C77.9336 100.955 77.1296 104.636 75.5215 107.853C73.9134 111.069 71.6071 113.798 68.6025 116.041C65.598 118.242 62.001 119.913 57.8115 121.056C53.6221 122.198 48.946 122.77 43.7832 122.77C39.0436 122.77 34.3675 122.177 29.7549 120.992C25.1846 119.765 21.0374 117.903 17.3135 115.406C13.5895 112.867 10.6061 109.63 8.36328 105.694C6.16276 101.716 5.0625 96.998 5.0625 91.5391H27.4062C27.4062 94.2474 27.766 96.5326 28.4854 98.3945C29.2048 100.257 30.2627 101.759 31.6592 102.901C33.0557 104.002 34.7695 104.806 36.8008 105.313C38.832 105.779 41.1595 106.012 43.7832 106.012C46.6185 106.012 48.9036 105.61 50.6387 104.806C52.3737 103.959 53.6432 102.859 54.4473 101.505C55.2513 100.108 55.6533 98.585 55.6533 96.9346ZM140.674 29.0781V121.5H118.394V29.0781H140.674ZM168.477 29.0781V46.2803H91.2256V29.0781H168.477ZM260.86 73.4482V77.1934C260.86 84.2604 259.866 90.6081 257.877 96.2363C255.93 101.822 253.159 106.604 249.562 110.582C245.965 114.518 241.712 117.543 236.803 119.659C231.894 121.733 226.477 122.77 220.553 122.77C214.586 122.77 209.127 121.733 204.176 119.659C199.267 117.543 194.993 114.518 191.354 110.582C187.757 106.604 184.964 101.822 182.975 96.2363C181.028 90.6081 180.055 84.2604 180.055 77.1934V73.4482C180.055 66.3812 181.028 60.0335 182.975 54.4053C184.964 48.777 187.735 43.9951 191.29 40.0596C194.887 36.0817 199.14 33.056 204.049 30.9824C209 28.8665 214.459 27.8086 220.426 27.8086C226.35 27.8086 231.767 28.8665 236.676 30.9824C241.627 33.056 245.901 36.0817 249.498 40.0596C253.095 43.9951 255.888 48.777 257.877 54.4053C259.866 60.0335 260.86 66.3812 260.86 73.4482ZM238.263 77.1934V73.3213C238.263 68.751 237.861 64.7308 237.057 61.2607C236.295 57.7484 235.152 54.8073 233.629 52.4375C232.105 50.0677 230.222 48.2904 227.979 47.1055C225.779 45.8783 223.261 45.2646 220.426 45.2646C217.464 45.2646 214.882 45.8783 212.682 47.1055C210.481 48.2904 208.64 50.0677 207.159 52.4375C205.678 54.8073 204.557 57.7484 203.795 61.2607C203.076 64.7308 202.716 68.751 202.716 73.3213V77.1934C202.716 81.7214 203.076 85.7415 203.795 89.2539C204.557 92.724 205.678 95.665 207.159 98.0771C208.683 100.489 210.545 102.309 212.745 103.536C214.988 104.763 217.59 105.377 220.553 105.377C223.388 105.377 225.906 104.763 228.106 103.536C230.307 102.309 232.148 100.489 233.629 98.0771C235.152 95.665 236.295 92.724 237.057 89.2539C237.861 85.7415 238.263 81.7214 238.263 77.1934ZM278.913 29.0781H315.285C322.395 29.0781 328.573 30.1361 333.82 32.252C339.068 34.3678 343.109 37.4993 345.944 41.6465C348.822 45.7936 350.261 50.9141 350.261 57.0078C350.261 62.2975 349.436 66.7197 347.785 70.2744C346.135 73.8291 343.828 76.7702 340.866 79.0977C337.946 81.3828 334.54 83.266 330.646 84.7471L323.347 88.873H292.814L292.688 71.6709H315.285C318.12 71.6709 320.469 71.1631 322.331 70.1475C324.193 69.1318 325.59 67.693 326.521 65.8311C327.494 63.9268 327.98 61.6628 327.98 59.0391C327.98 56.373 327.494 54.0879 326.521 52.1836C325.547 50.2793 324.108 48.8193 322.204 47.8037C320.342 46.7881 318.036 46.2803 315.285 46.2803H301.193V121.5H278.913V29.0781ZM329.504 121.5L309.064 80.6211L332.678 80.4941L353.371 120.548V121.5H329.504ZM383.929 29.0781L400.94 69.1953L418.016 29.0781H442.01L412.303 88.3018V121.5H389.642V88.3018L359.871 29.0781H383.929Z" fill="white"/>
<path d="M55.0186 93.0625L50.3098 94.7442L50.3197 94.7717L50.3298 94.7991L55.0186 93.0625ZM47.7188 86.7148L45.4827 91.187L45.5359 91.2136L45.5898 91.2389L47.7188 86.7148ZM39.3398 83.4141L37.7587 88.1575L37.7674 88.1604L37.7761 88.1632L39.3398 83.4141ZM27.5967 78.8438L25.5046 83.385L25.5258 83.3948L25.547 83.4043L27.5967 78.8438ZM17.5039 72.8135L14.4148 76.7451L14.4323 76.7588L14.4499 76.7724L17.5039 72.8135ZM10.458 64.6885L6.08444 67.1117L6.09145 67.1243L6.09854 67.1369L10.458 64.6885ZM10.5215 43.043L14.884 45.486L14.8909 45.4737L14.8977 45.4614L10.5215 43.043ZM17.9482 34.8545L20.8338 38.9378L20.8443 38.9304L17.9482 34.8545ZM29.2471 29.6494L30.5707 34.471L30.5926 34.465L30.6144 34.4588L29.2471 29.6494ZM61.3027 31.3633L59.2169 35.9074L59.2393 35.9177L59.2617 35.9277L61.3027 31.3633ZM73.4902 41.3291L69.3488 44.1306L69.3646 44.154L69.3807 44.1773L73.4902 41.3291ZM77.9336 56.5V61.5H82.9336V56.5H77.9336ZM55.7803 56.5H50.7803V61.5H55.7803V56.5ZM54.3203 50.3428L49.8912 52.6628L49.9126 52.7038L49.9348 52.7443L54.3203 50.3428ZM31.5322 49.3271L35.6342 52.1861L35.6541 52.1575L35.6736 52.1287L31.5322 49.3271ZM31.2148 57.7695L27.0546 60.543L27.1143 60.6327L27.1779 60.7196L31.2148 57.7695ZM34.5791 60.8799L31.7776 65.0213L31.8053 65.04L31.8332 65.0584L34.5791 60.8799ZM39.9111 63.6729L37.9415 68.2686L37.9582 68.2757L37.975 68.2828L39.9111 63.6729ZM47.0205 66.2754L45.4855 71.0339L45.4933 71.0364L45.5011 71.0389L47.0205 66.2754ZM60.0967 71.5439L57.8211 75.9961L57.8506 76.0112L57.8803 76.0259L60.0967 71.5439ZM69.8086 78.082L66.3928 81.7334L66.4232 81.7618L66.454 81.7897L69.8086 78.082ZM75.8389 86.334L71.2595 88.3414L71.271 88.3675L71.2828 88.3936L75.8389 86.334ZM68.6025 116.041L71.5569 120.075L71.5753 120.061L71.5935 120.048L68.6025 116.041ZM29.7549 120.992L28.4582 125.821L28.4845 125.828L28.5109 125.835L29.7549 120.992ZM17.3135 115.406L14.4968 119.537L14.5129 119.548L14.5291 119.559L17.3135 115.406ZM8.36328 105.694L3.98811 108.115L4.00348 108.142L4.01919 108.17L8.36328 105.694ZM5.0625 91.5391V86.5391H0.0625V91.5391H5.0625ZM27.4062 91.5391H32.4062V86.5391H27.4062V91.5391ZM31.6592 102.901L28.493 106.771L28.5286 106.8L28.5648 106.829L31.6592 102.901ZM36.8008 105.313L35.5881 110.164L35.6359 110.176L35.6839 110.187L36.8008 105.313ZM50.6387 104.806L52.741 109.342L52.7861 109.321L52.8308 109.3L50.6387 104.806ZM54.4473 101.505L58.7465 104.058L58.7637 104.029L58.7804 104L54.4473 101.505ZM55.6533 96.9346H60.6533C60.6533 95.0079 60.3699 93.1148 59.7073 91.3259L55.0186 93.0625L50.3298 94.7991C50.5136 95.2953 50.6533 95.9837 50.6533 96.9346H55.6533ZM55.0186 93.0625L59.7273 91.3808C58.967 89.2521 57.6279 87.479 55.9917 86.0247L52.6699 89.7617L49.3481 93.4988C49.9971 94.0756 50.2238 94.5031 50.3098 94.7442L55.0186 93.0625ZM52.6699 89.7617L55.9917 86.0247C54.3497 84.5651 52.2256 83.3098 49.8477 82.1908L47.7188 86.7148L45.5898 91.2389C47.5283 92.1512 48.705 92.9271 49.3481 93.4988L52.6699 89.7617ZM47.7188 86.7148L49.9548 82.2427C47.5386 81.0346 44.4946 79.8473 40.9036 78.6649L39.3398 83.4141L37.7761 88.1632C41.1252 89.266 43.6672 90.2792 45.4827 91.187L47.7188 86.7148ZM39.3398 83.4141L40.921 78.6706C37.0118 77.3676 33.2541 75.9046 29.6464 74.2832L27.5967 78.8438L25.547 83.4043C29.4718 85.1683 33.5429 86.7522 37.7587 88.1575L39.3398 83.4141ZM27.5967 78.8438L29.6887 74.3025C26.2276 72.708 23.1923 70.8868 20.5579 68.8546L17.5039 72.8135L14.4499 76.7724C17.74 79.3105 21.4332 81.5094 25.5046 83.385L27.5967 78.8438ZM17.5039 72.8135L20.593 68.8819C18.1145 66.9345 16.2106 64.7205 14.8175 62.24L10.458 64.6885L6.09854 67.1369C8.17543 70.8348 10.9689 74.0376 14.4148 76.7451L17.5039 72.8135ZM10.458 64.6885L14.8316 62.2653C13.5684 59.9854 12.8555 57.2053 12.8555 53.7705H7.85547H2.85547C2.85547 58.63 3.87757 63.1285 6.08444 67.1117L10.458 64.6885ZM7.85547 53.7705H12.8555C12.8555 50.566 13.563 47.8449 14.884 45.486L10.5215 43.043L6.15895 40.6C3.92526 44.5887 2.85547 49.0193 2.85547 53.7705H7.85547ZM10.5215 43.043L14.8977 45.4614C16.2892 42.9435 18.2397 40.771 20.8338 38.9378L17.9482 34.8545L15.0627 30.7712C11.3091 33.4237 8.30848 36.7102 6.14528 40.6245L10.5215 43.043ZM17.9482 34.8545L20.8443 38.9304C23.5244 37.0261 26.743 35.5218 30.5707 34.471L29.2471 29.6494L27.9235 24.8278C23.1184 26.1468 18.8044 28.1126 15.0522 30.7786L17.9482 34.8545ZM29.2471 29.6494L30.6144 34.4588C34.4286 33.3744 38.6805 32.8086 43.4023 32.8086V27.8086V22.8086C37.8833 22.8086 32.6984 23.47 27.8797 24.84L29.2471 29.6494ZM43.4023 27.8086V32.8086C49.5895 32.8086 54.8219 33.8901 59.2169 35.9074L61.3027 31.3633L63.3886 26.8191C57.458 24.0969 50.7569 22.8086 43.4023 22.8086V27.8086ZM61.3027 31.3633L59.2617 35.9277C63.699 37.9119 66.9997 40.6581 69.3488 44.1306L73.4902 41.3291L77.6317 38.5276C74.1409 33.3673 69.3167 29.4696 63.3438 26.7988L61.3027 31.3633ZM73.4902 41.3291L69.3807 44.1773C71.6932 47.5138 72.9336 51.5479 72.9336 56.5H77.9336H82.9336C82.9336 49.7724 81.2118 43.6926 77.5997 38.4809L73.4902 41.3291ZM77.9336 56.5V51.5H55.7803V56.5V61.5H77.9336V56.5ZM55.7803 56.5H60.7803C60.7803 53.4591 60.1387 50.5579 58.7058 47.9412L54.3203 50.3428L49.9348 52.7443C50.4485 53.6824 50.7803 54.886 50.7803 56.5H55.7803ZM54.3203 50.3428L58.7495 48.0227C57.3166 45.2872 55.1407 43.1924 52.4203 41.7416L50.0674 46.1533L47.7144 50.5651C48.8027 51.1455 49.4621 51.8437 49.8912 52.6628L54.3203 50.3428ZM50.0674 46.1533L52.4203 41.7416C49.5909 40.2325 46.3301 39.6299 42.8945 39.6299V44.6299V49.6299C45.2142 49.6299 46.7353 50.0429 47.7144 50.5651L50.0674 46.1533ZM42.8945 44.6299V39.6299C39.6274 39.6299 36.5396 40.1207 33.8179 41.3304L35.8486 45.8994L37.8793 50.4685C38.9662 49.9854 40.5757 49.6299 42.8945 49.6299V44.6299ZM35.8486 45.8994L33.8179 41.3304C31.2307 42.4803 28.9848 44.1692 27.3908 46.5256L31.5322 49.3271L35.6736 52.1287C36.0263 51.6074 36.658 51.0113 37.8793 50.4685L35.8486 45.8994ZM31.5322 49.3271L27.4302 46.4682C25.8759 48.6984 25.0723 51.2397 25.0723 53.9609H30.0723H35.0723C35.0723 53.2967 35.242 52.7489 35.6342 52.1861L31.5322 49.3271ZM30.0723 53.9609H25.0723C25.0723 56.3267 25.7355 58.5644 27.0546 60.543L31.2148 57.7695L35.3751 54.996C35.1707 54.6895 35.0723 54.3881 35.0723 53.9609H30.0723ZM31.2148 57.7695L27.1779 60.7196C28.4009 62.3932 29.9864 63.8096 31.7776 65.0213L34.5791 60.8799L37.3806 56.7385C36.2942 56.0035 35.6369 55.3464 35.2518 54.8194L31.2148 57.7695ZM34.5791 60.8799L31.8332 65.0584C33.6162 66.2301 35.6667 67.2936 37.9415 68.2686L39.9111 63.6729L41.8807 59.0771C40.0084 58.2747 38.5043 57.4763 37.325 56.7014L34.5791 60.8799ZM39.9111 63.6729L37.975 68.2828C40.2454 69.2363 42.752 70.1522 45.4855 71.0339L47.0205 66.2754L48.5555 61.5168C46.0416 60.7059 43.8087 59.8867 41.8473 59.0629L39.9111 63.6729ZM47.0205 66.2754L45.5011 71.0389C50.2006 72.5379 54.2989 74.1959 57.8211 75.9961L60.0967 71.5439L62.3722 67.0918C58.2773 64.9988 53.6581 63.1444 48.5399 61.5118L47.0205 66.2754ZM60.0967 71.5439L57.8803 76.0259C61.3759 77.7545 64.188 79.6708 66.3928 81.7334L69.8086 78.082L73.2244 74.4307C70.1818 71.5844 66.5193 69.142 62.313 67.062L60.0967 71.5439ZM69.8086 78.082L66.454 81.7897C68.6314 83.7597 70.2074 85.9411 71.2595 88.3414L75.8389 86.334L80.4182 84.3266C78.7621 80.5485 76.3178 77.2286 73.1632 74.3744L69.8086 78.082ZM75.8389 86.334L71.2828 88.3936C72.3463 90.7463 72.9336 93.5196 72.9336 96.8076H77.9336H82.9336C82.9336 92.3091 82.1244 88.1001 80.395 84.2744L75.8389 86.334ZM77.9336 96.8076H72.9336C72.9336 100.298 72.2606 103.194 71.0493 105.616L75.5215 107.853L79.9936 110.089C81.9985 106.079 82.9336 101.612 82.9336 96.8076H77.9336ZM75.5215 107.853L71.0493 105.616C69.8052 108.105 68.0186 110.237 65.6116 112.034L68.6025 116.041L71.5935 120.048C75.1956 117.359 78.0217 114.033 79.9936 110.089L75.5215 107.853ZM68.6025 116.041L65.6482 112.007C63.2116 113.792 60.1917 115.224 56.4959 116.232L57.8115 121.056L59.1271 125.879C63.8102 124.602 67.9844 122.691 71.5569 120.075L68.6025 116.041ZM57.8115 121.056L56.4959 116.232C52.807 117.238 48.5826 117.77 43.7832 117.77V122.77V127.77C49.3093 127.77 54.4372 127.159 59.1271 125.879L57.8115 121.056ZM43.7832 122.77V117.77C39.4653 117.77 35.2071 117.23 30.9989 116.149L29.7549 120.992L28.5109 125.835C33.528 127.124 38.622 127.77 43.7832 127.77V122.77ZM29.7549 120.992L31.0515 116.163C26.9813 115.07 23.3416 113.428 20.0979 111.253L17.3135 115.406L14.5291 119.559C18.7333 122.378 23.3879 124.46 28.4582 125.821L29.7549 120.992ZM17.3135 115.406L20.1302 111.275C17.0379 109.167 14.5756 106.497 12.7074 103.219L8.36328 105.694L4.01919 108.17C6.63667 112.763 10.1411 116.568 14.4968 119.537L17.3135 115.406ZM8.36328 105.694L12.7385 103.274C11.0227 100.172 10.0625 96.321 10.0625 91.5391H5.0625H0.0625C0.0625 97.6751 1.30284 103.26 3.98811 108.115L8.36328 105.694ZM5.0625 91.5391V96.5391H27.4062V91.5391V86.5391H5.0625V91.5391ZM27.4062 91.5391H22.4062C22.4062 94.6578 22.8161 97.5947 23.8214 100.197L28.4854 98.3945L33.1493 96.5925C32.7158 95.4704 32.4062 93.837 32.4062 91.5391H27.4062ZM28.4854 98.3945L23.8214 100.197C24.8187 102.778 26.3574 105.024 28.493 106.771L31.6592 102.901L34.8254 99.0316C34.168 98.4937 33.5908 97.7351 33.1493 96.5925L28.4854 98.3945ZM31.6592 102.901L28.5648 106.829C30.6061 108.437 32.9918 109.515 35.5881 110.164L36.8008 105.313L38.0135 100.463C36.5472 100.096 35.5052 99.5661 34.7535 98.9739L31.6592 102.901ZM36.8008 105.313L35.6839 110.187C38.1615 110.755 40.8756 111.012 43.7832 111.012V106.012V101.012C41.4434 101.012 39.5026 100.803 37.9177 100.44L36.8008 105.313ZM43.7832 106.012V111.012C47.0239 111.012 50.1077 110.563 52.741 109.342L50.6387 104.806L48.5364 100.269C47.6996 100.657 46.2131 101.012 43.7832 101.012V106.012ZM50.6387 104.806L52.8308 109.3C55.2433 108.123 57.3423 106.423 58.7465 104.058L54.4473 101.505L50.148 98.9522C49.9442 99.2954 49.5041 99.7959 48.4466 100.312L50.6387 104.806ZM54.4473 101.505L58.7804 104C60.0323 101.825 60.6533 99.4384 60.6533 96.9346H55.6533H50.6533C50.6533 97.7315 50.4703 98.3914 50.1142 99.0101L54.4473 101.505ZM140.674 29.0781H145.674V24.0781H140.674V29.0781ZM140.674 121.5V126.5H145.674V121.5H140.674ZM118.394 121.5H113.394V126.5H118.394V121.5ZM118.394 29.0781V24.0781H113.394V29.0781H118.394ZM168.477 29.0781H173.477V24.0781H168.477V29.0781ZM168.477 46.2803V51.2803H173.477V46.2803H168.477ZM91.2256 46.2803H86.2256V51.2803H91.2256V46.2803ZM91.2256 29.0781V24.0781H86.2256V29.0781H91.2256ZM140.674 29.0781H135.674V121.5H140.674H145.674V29.0781H140.674ZM140.674 121.5V116.5H118.394V121.5V126.5H140.674V121.5ZM118.394 121.5H123.394V29.0781H118.394H113.394V121.5H118.394ZM118.394 29.0781V34.0781H140.674V29.0781V24.0781H118.394V29.0781ZM168.477 29.0781H163.477V46.2803H168.477H173.477V29.0781H168.477ZM168.477 46.2803V41.2803H91.2256V46.2803V51.2803H168.477V46.2803ZM91.2256 46.2803H96.2256V29.0781H91.2256H86.2256V46.2803H91.2256ZM91.2256 29.0781V34.0781H168.477V29.0781V24.0781H91.2256V29.0781ZM257.877 96.2363L253.163 94.5704L253.159 94.5807L253.155 94.591L257.877 96.2363ZM249.562 110.582L253.252 113.955L253.261 113.945L253.27 113.936L249.562 110.582ZM236.803 119.659L238.748 124.265L238.765 124.258L238.782 124.251L236.803 119.659ZM204.176 119.659L202.197 124.251L202.22 124.261L202.244 124.271L204.176 119.659ZM191.354 110.582L187.645 113.936L187.664 113.956L187.683 113.977L191.354 110.582ZM182.975 96.2363L178.249 97.8707L178.257 97.8921L178.264 97.9135L182.975 96.2363ZM182.975 54.4053L178.26 52.7393L178.255 52.7551L178.249 52.7709L182.975 54.4053ZM191.29 40.0596L187.581 36.706L187.58 36.7081L191.29 40.0596ZM204.049 30.9824L205.994 35.5884L206.004 35.5843L206.014 35.5802L204.049 30.9824ZM236.676 30.9824L234.697 35.574L234.72 35.5843L234.744 35.5943L236.676 30.9824ZM249.498 40.0596L245.789 43.4131L245.798 43.423L245.807 43.4328L249.498 40.0596ZM257.877 54.4053L253.163 56.0712L257.877 54.4053ZM237.057 61.2607L232.17 62.3204L232.178 62.355L232.186 62.3894L237.057 61.2607ZM227.979 47.1055L225.544 51.4723L225.594 51.4999L225.644 51.5264L227.979 47.1055ZM212.682 47.1055L215.052 51.5078L215.085 51.4903L215.117 51.4723L212.682 47.1055ZM207.159 52.4375L202.919 49.7875L207.159 52.4375ZM203.795 61.2607L198.909 60.201L198.904 60.2234L198.899 60.2457L203.795 61.2607ZM203.795 89.2539L198.897 90.2572L198.904 90.2916L198.911 90.3259L203.795 89.2539ZM207.159 98.0771L202.898 100.693L202.915 100.72L202.932 100.747L207.159 98.0771ZM212.745 103.536L210.31 107.903L210.327 107.913L210.345 107.922L212.745 103.536ZM233.629 98.0771L229.401 95.4072L229.385 95.4339L229.368 95.4608L233.629 98.0771ZM237.057 89.2539L232.183 88.1382L232.178 88.16L232.173 88.1819L237.057 89.2539ZM260.86 73.4482H255.86V77.1934H260.86H265.86V73.4482H260.86ZM260.86 77.1934H255.86C255.86 83.7947 254.931 89.5654 253.163 94.5704L257.877 96.2363L262.591 97.9023C264.8 91.6507 265.86 84.7261 265.86 77.1934H260.86ZM257.877 96.2363L253.155 94.591C251.406 99.6108 248.957 103.795 245.853 107.229L249.562 110.582L253.27 113.936C257.36 109.413 260.455 104.034 262.598 97.8817L257.877 96.2363ZM249.562 110.582L245.871 107.209C242.753 110.62 239.084 113.231 234.824 115.068L236.803 119.659L238.782 124.251C244.339 121.855 249.176 118.415 253.252 113.955L249.562 110.582ZM236.803 119.659L234.857 115.053C230.629 116.839 225.884 117.77 220.553 117.77V122.77V127.77C227.071 127.77 233.158 126.626 238.748 124.265L236.803 119.659ZM220.553 122.77V117.77C215.175 117.77 210.382 116.838 206.107 115.047L204.176 119.659L202.244 124.271C207.872 126.628 213.997 127.77 220.553 127.77V122.77ZM204.176 119.659L206.155 115.068C201.889 113.229 198.191 110.612 195.025 107.187L191.354 110.582L187.683 113.977C191.795 118.424 196.645 121.858 202.197 124.251L204.176 119.659ZM191.354 110.582L195.062 107.229C191.95 103.787 189.477 99.5915 187.685 94.5592L182.975 96.2363L178.264 97.9135C180.45 104.053 183.563 109.421 187.645 113.936L191.354 110.582ZM182.975 96.2363L187.7 94.602C185.966 89.5872 185.055 83.8053 185.055 77.1934H180.055H175.055C175.055 84.7156 176.09 91.629 178.249 97.8707L182.975 96.2363ZM180.055 77.1934H185.055V73.4482H180.055H175.055V77.1934H180.055ZM180.055 73.4482H185.055C185.055 66.8363 185.966 61.0544 187.7 56.0396L182.975 54.4053L178.249 52.7709C176.09 59.0126 175.055 65.926 175.055 73.4482H180.055ZM182.975 54.4053L187.689 56.0712C189.485 50.9876 191.941 46.7986 195.001 43.411L191.29 40.0596L187.58 36.7081C183.53 41.1916 180.442 46.5665 178.26 52.7393L182.975 54.4053ZM191.29 40.0596L194.999 43.4131C198.11 39.9727 201.762 37.3762 205.994 35.5884L204.049 30.9824L202.103 26.3765C196.518 28.7358 191.664 32.1907 187.581 36.706L191.29 40.0596ZM204.049 30.9824L206.014 35.5802C210.28 33.7571 215.061 32.8086 220.426 32.8086V27.8086V22.8086C213.857 22.8086 207.72 23.976 202.084 26.3847L204.049 30.9824ZM220.426 27.8086V32.8086C225.744 32.8086 230.477 33.7554 234.697 35.574L236.676 30.9824L238.655 26.3908C233.056 23.9777 226.957 22.8086 220.426 22.8086V27.8086ZM236.676 30.9824L234.744 35.5943C239.018 37.3843 242.686 39.9807 245.789 43.4131L249.498 40.0596L253.207 36.706C249.116 32.1827 244.235 28.7276 238.607 26.3705L236.676 30.9824ZM249.498 40.0596L245.807 43.4328C248.901 46.8177 251.37 50.9993 253.163 56.0712L257.877 54.4053L262.591 52.7393C260.406 46.5547 257.289 41.1725 253.189 36.6863L249.498 40.0596ZM257.877 54.4053L253.163 56.0712C254.931 61.0762 255.86 66.8469 255.86 73.4482H260.86H265.86C265.86 65.9155 264.8 58.9909 262.591 52.7393L257.877 54.4053ZM238.263 77.1934H243.263V73.3213H238.263H233.263V77.1934H238.263ZM238.263 73.3213H243.263C243.263 68.4721 242.838 64.0592 241.928 60.1321L237.057 61.2607L232.186 62.3894C232.884 65.4024 233.263 69.0299 233.263 73.3213H238.263ZM237.057 61.2607L241.943 60.201C241.088 56.2582 239.757 52.7237 237.835 49.7337L233.629 52.4375L229.423 55.1413C230.548 56.8909 231.502 59.2386 232.17 62.3204L237.057 61.2607ZM233.629 52.4375L237.835 49.7337C235.899 46.722 233.4 44.3145 230.315 42.6845L227.979 47.1055L225.644 51.5264C227.044 52.2663 228.312 53.4134 229.423 55.1413L233.629 52.4375ZM227.979 47.1055L230.415 42.7386C227.38 41.0463 224.005 40.2646 220.426 40.2646V45.2646V50.2646C222.517 50.2646 224.178 50.7102 225.544 51.4723L227.979 47.1055ZM220.426 45.2646V40.2646C216.761 40.2646 213.313 41.0286 210.246 42.7386L212.682 47.1055L215.117 51.4723C216.452 50.7279 218.166 50.2646 220.426 50.2646V45.2646ZM212.682 47.1055L210.311 42.7031C207.259 44.3468 204.805 46.77 202.919 49.7875L207.159 52.4375L211.399 55.0875C212.475 53.3654 213.704 52.2339 215.052 51.5078L212.682 47.1055ZM207.159 52.4375L202.919 49.7875C201.059 52.7634 199.759 56.2785 198.909 60.201L203.795 61.2607L208.681 62.3204C209.354 59.2183 210.297 56.8511 211.399 55.0875L207.159 52.4375ZM203.795 61.2607L198.899 60.2457C198.094 64.1294 197.716 68.5024 197.716 73.3213H202.716H207.716C207.716 68.9995 208.057 65.3321 208.691 62.2757L203.795 61.2607ZM202.716 73.3213H197.716V77.1934H202.716H207.716V73.3213H202.716ZM202.716 77.1934H197.716C197.716 81.9749 198.095 86.3419 198.897 90.2572L203.795 89.2539L208.693 88.2506C208.056 85.1412 207.716 81.4679 207.716 77.1934H202.716ZM203.795 89.2539L198.911 90.3259C199.764 94.2087 201.061 97.7012 202.898 100.693L207.159 98.0771L211.42 95.4608C210.295 93.6289 209.35 91.2392 208.679 88.1819L203.795 89.2539ZM207.159 98.0771L202.932 100.747C204.842 103.771 207.288 106.217 210.31 107.903L212.745 103.536L215.18 99.1693C213.802 98.4004 212.524 97.2076 211.387 95.4072L207.159 98.0771ZM212.745 103.536L210.345 107.922C213.433 109.612 216.886 110.377 220.553 110.377V105.377V100.377C218.295 100.377 216.543 99.9146 215.145 99.1498L212.745 103.536ZM220.553 105.377V110.377C224.132 110.377 227.507 109.595 230.542 107.903L228.106 103.536L225.671 99.1693C224.305 99.9314 222.644 100.377 220.553 100.377V105.377ZM228.106 103.536L230.542 107.903C233.58 106.209 236.017 103.744 237.89 100.693L233.629 98.0771L229.368 95.4608C228.279 97.2344 227.034 98.409 225.671 99.1693L228.106 103.536ZM233.629 98.0771L237.856 100.747C239.755 97.7408 241.084 94.2291 241.94 90.3259L237.057 89.2539L232.173 88.1819C231.506 91.2188 230.55 93.5892 229.401 95.4072L233.629 98.0771ZM237.057 89.2539L241.931 90.3696C242.837 86.412 243.263 82.0057 243.263 77.1934H238.263H233.263C233.263 81.437 232.885 85.0711 232.183 88.1382L237.057 89.2539ZM278.913 29.0781V24.0781H273.913V29.0781H278.913ZM333.82 32.252L331.95 36.8892L333.82 32.252ZM345.944 41.6465L341.817 44.4684L341.827 44.4827L341.836 44.4969L345.944 41.6465ZM340.866 79.0977L343.948 83.0352L343.955 83.0292L340.866 79.0977ZM330.646 84.7471L328.869 80.0738L328.515 80.2082L328.186 80.3943L330.646 84.7471ZM323.347 88.873V93.873H324.662L325.807 93.2259L323.347 88.873ZM292.814 88.873L287.815 88.9099L287.851 93.873H292.814V88.873ZM292.688 71.6709V66.6709H287.65L287.688 71.7078L292.688 71.6709ZM326.521 65.8311L322.068 63.5555L322.058 63.5752L322.048 63.595L326.521 65.8311ZM322.204 47.8037L319.81 52.1932L319.83 52.2044L319.851 52.2155L322.204 47.8037ZM301.193 46.2803V41.2803H296.193V46.2803H301.193ZM301.193 121.5V126.5H306.193V121.5H301.193ZM278.913 121.5H273.913V126.5H278.913V121.5ZM329.504 121.5L325.032 123.736L326.414 126.5H329.504V121.5ZM309.064 80.6211L309.038 75.6212L300.996 75.6644L304.592 82.8572L309.064 80.6211ZM332.678 80.4941L337.12 78.1991L335.714 75.4777L332.651 75.4942L332.678 80.4941ZM353.371 120.548H358.371V119.333L357.813 118.253L353.371 120.548ZM353.371 121.5V126.5H358.371V121.5H353.371ZM278.913 29.0781V34.0781H315.285V29.0781V24.0781H278.913V29.0781ZM315.285 29.0781V34.0781C321.912 34.0781 327.428 35.0657 331.95 36.8892L333.82 32.252L335.69 27.6147C329.717 25.2064 322.877 24.0781 315.285 24.0781V29.0781ZM333.82 32.252L331.95 36.8892C336.402 38.6842 339.607 41.2362 341.817 44.4684L345.944 41.6465L350.072 38.8246C346.611 33.7625 341.733 30.0515 335.69 27.6147L333.82 32.252ZM345.944 41.6465L341.836 44.4969C344.022 47.6463 345.261 51.7181 345.261 57.0078H350.261H355.261C355.261 50.11 353.622 43.9409 350.052 38.7961L345.944 41.6465ZM350.261 57.0078H345.261C345.261 61.8112 344.507 65.4621 343.25 68.1689L347.785 70.2744L352.32 72.38C354.364 67.9773 355.261 62.7839 355.261 57.0078H350.261ZM347.785 70.2744L343.25 68.1689C341.917 71.0392 340.095 73.3448 337.777 75.1661L340.866 79.0977L343.955 83.0292C347.562 80.1956 350.352 76.619 352.32 72.38L347.785 70.2744ZM340.866 79.0977L337.785 75.1601C335.305 77.1005 332.35 78.7494 328.869 80.0738L330.646 84.7471L332.424 89.4203C336.73 87.7825 340.587 85.6651 343.948 83.0352L340.866 79.0977ZM330.646 84.7471L328.186 80.3943L320.886 84.5202L323.347 88.873L325.807 93.2259L333.107 89.0999L330.646 84.7471ZM323.347 88.873V83.873H292.814V88.873V93.873H323.347V88.873ZM292.814 88.873L297.814 88.8361L297.687 71.634L292.688 71.6709L287.688 71.7078L287.815 88.9099L292.814 88.873ZM292.688 71.6709V76.6709H315.285V71.6709V66.6709H292.688V71.6709ZM315.285 71.6709V76.6709C318.686 76.6709 321.923 76.0654 324.725 74.5369L322.331 70.1475L319.937 65.758C319.015 66.2607 317.555 66.6709 315.285 66.6709V71.6709ZM322.331 70.1475L324.725 74.5369C327.465 73.0423 329.596 70.8604 330.993 68.0671L326.521 65.8311L322.048 63.595C321.583 64.5257 320.921 65.2214 319.937 65.758L322.331 70.1475ZM326.521 65.8311L330.973 68.1066C332.379 65.3558 332.98 62.2773 332.98 59.0391H327.98H322.98C322.98 61.0482 322.609 62.4978 322.068 63.5555L326.521 65.8311ZM327.98 59.0391H332.98C332.98 55.773 332.384 52.6693 330.973 49.908L326.521 52.1836L322.068 54.4591C322.604 55.5065 322.98 56.9731 322.98 59.0391H327.98ZM326.521 52.1836L330.973 49.908C329.53 47.085 327.354 44.8837 324.557 43.3919L322.204 47.8037L319.851 52.2155C320.863 52.755 321.565 53.4736 322.068 54.4591L326.521 52.1836ZM322.204 47.8037L324.598 43.4142C321.816 41.8965 318.631 41.2803 315.285 41.2803V46.2803V51.2803C317.44 51.2803 318.868 51.6797 319.81 52.1932L322.204 47.8037ZM315.285 46.2803V41.2803H301.193V46.2803V51.2803H315.285V46.2803ZM301.193 46.2803H296.193V121.5H301.193H306.193V46.2803H301.193ZM301.193 121.5V116.5H278.913V121.5V126.5H301.193V121.5ZM278.913 121.5H283.913V29.0781H278.913H273.913V121.5H278.913ZM329.504 121.5L333.976 119.264L313.537 78.385L309.064 80.6211L304.592 82.8572L325.032 123.736L329.504 121.5ZM309.064 80.6211L309.091 85.621L332.705 85.4941L332.678 80.4941L332.651 75.4942L309.038 75.6212L309.064 80.6211ZM332.678 80.4941L328.236 82.7891L348.929 122.843L353.371 120.548L357.813 118.253L337.12 78.1991L332.678 80.4941ZM353.371 120.548H348.371V121.5H353.371H358.371V120.548H353.371ZM353.371 121.5V116.5H329.504V121.5V126.5H353.371V121.5ZM383.929 29.0781L388.532 27.1261L387.239 24.0781H383.929V29.0781ZM400.94 69.1953L396.337 71.1473L400.932 81.9825L405.541 71.1535L400.94 69.1953ZM418.016 29.0781V24.0781H414.71L413.415 27.12L418.016 29.0781ZM442.01 29.0781L446.479 31.3199L450.112 24.0781H442.01V29.0781ZM412.303 88.3018L407.833 86.0599L407.303 87.118V88.3018H412.303ZM412.303 121.5V126.5H417.303V121.5H412.303ZM389.642 121.5H384.642V126.5H389.642V121.5ZM389.642 88.3018H394.642V87.1158L394.109 86.0561L389.642 88.3018ZM359.871 29.0781V24.0781H351.762L355.404 31.3238L359.871 29.0781ZM383.929 29.0781L379.325 31.0301L396.337 71.1473L400.94 69.1953L405.544 67.2433L388.532 27.1261L383.929 29.0781ZM400.94 69.1953L405.541 71.1535L422.616 31.0363L418.016 29.0781L413.415 27.12L396.34 67.2371L400.94 69.1953ZM418.016 29.0781V34.0781H442.01V29.0781V24.0781H418.016V29.0781ZM442.01 29.0781L437.54 26.8363L407.833 86.0599L412.303 88.3018L416.772 90.5436L446.479 31.3199L442.01 29.0781ZM412.303 88.3018H407.303V121.5H412.303H417.303V88.3018H412.303ZM412.303 121.5V116.5H389.642V121.5V126.5H412.303V121.5ZM389.642 121.5H394.642V88.3018H389.642H384.642V121.5H389.642ZM389.642 88.3018L394.109 86.0561L364.338 26.8325L359.871 29.0781L355.404 31.3238L385.174 90.5474L389.642 88.3018ZM359.871 29.0781V34.0781H383.929V29.0781V24.0781H359.871V29.0781Z" fill="#6155F5" mask="url(#path-4-outside-2_2604_36)"/>
</svg>
