<svg width="144" height="145" viewBox="0 0 144 145" fill="none" xmlns="http://www.w3.org/2000/svg">
<rect y="0.5" width="144" height="144" rx="8" fill="white"/>
<path d="M104 41L132 13M132 13H115.375M132 13V29.625" stroke="#6155F5" stroke-width="5" stroke-linecap="round" stroke-linejoin="round"/>
<path d="M72 12.5C38.8629 12.5 12 39.3629 12 72.5C12 83.4284 14.9218 93.6746 20.0269 102.5M132 72.5C132 105.637 105.137 132.5 72 132.5C61.0716 132.5 50.8252 129.578 42 124.473" stroke="#6155F5" stroke-width="5" stroke-linecap="round"/>
<path d="M73.9313 59C71.9982 59 70.4313 60.567 70.4313 62.5C70.4313 64.433 71.9982 66 73.9313 66H87.9313C89.864 66 91.4313 64.433 91.4313 62.5C91.4313 60.567 89.864 59 87.9313 59H73.9313Z" fill="#6155F5" fill-opacity="0.6"/>
<path d="M73.9313 90.5C71.9982 90.5 70.4313 92.0669 70.4313 94C70.4313 95.933 71.9982 97.5 73.9313 97.5H87.9313C89.864 97.5 91.4313 95.933 91.4313 94C91.4313 92.0669 89.864 90.5 87.9313 90.5H73.9313Z" fill="#6155F5" fill-opacity="0.6"/>
<path d="M73.9313 48.5C71.9982 48.5 70.4313 50.067 70.4313 52C70.4313 53.933 71.9982 55.5 73.9313 55.5H101.931C103.864 55.5 105.431 53.933 105.431 52C105.431 50.067 103.864 48.5 101.931 48.5H73.9313Z" fill="#6155F5" fill-opacity="0.8"/>
<path d="M73.9313 80C71.9982 80 70.4313 81.5669 70.4313 83.5C70.4313 85.433 71.9982 87 73.9313 87H101.931C103.864 87 105.431 85.433 105.431 83.5C105.431 81.5669 103.864 80 101.931 80H73.9313Z" fill="#6155F5" fill-opacity="0.8"/>
<path d="M42.0688 45.0073C40.1359 45.0073 38.5688 46.5743 38.5688 48.5073V66.0074C38.5688 67.9404 40.1359 69.5074 42.0688 69.5074H59.5688C61.5019 69.5074 63.0688 67.9404 63.0688 66.0074V48.5073C63.0688 46.5743 61.5019 45.0073 59.5688 45.0073H42.0688Z" fill="#6155F5"/>
<path d="M42.0688 76.4926C40.1359 76.4926 38.5688 78.0596 38.5688 79.9926V97.4926C38.5688 99.4257 40.1359 100.993 42.0688 100.993H59.5688C61.5019 100.993 63.0688 99.4257 63.0688 97.4926V79.9926C63.0688 78.0596 61.5019 76.4926 59.5688 76.4926H42.0688Z" fill="#6155F5"/>
</svg>
