<svg width="1152" height="153" viewBox="0 0 1152 153" fill="none" xmlns="http://www.w3.org/2000/svg">
<rect x="4" y="4.5" width="144" height="144" rx="8" fill="white"/>
<path d="M108 45L136 17M136 17H119.375M136 17V33.625" stroke="#6155F5" stroke-width="5" stroke-linecap="round" stroke-linejoin="round"/>
<path d="M76 16.5C42.8629 16.5 16 43.3629 16 76.5C16 87.4284 18.9218 97.6746 24.0269 106.5M136 76.5C136 109.637 109.137 136.5 76 136.5C65.0716 136.5 54.8252 133.578 46 128.473" stroke="#6155F5" stroke-width="5" stroke-linecap="round"/>
<path d="M77.9313 63C75.9982 63 74.4313 64.567 74.4313 66.5C74.4313 68.433 75.9982 70 77.9313 70H91.9313C93.864 70 95.4313 68.433 95.4313 66.5C95.4313 64.567 93.864 63 91.9313 63H77.9313Z" fill="#6155F5" fill-opacity="0.6"/>
<path d="M77.9313 94.5C75.9982 94.5 74.4313 96.0669 74.4313 98C74.4313 99.933 75.9982 101.5 77.9313 101.5H91.9313C93.864 101.5 95.4313 99.933 95.4313 98C95.4313 96.0669 93.864 94.5 91.9313 94.5H77.9313Z" fill="#6155F5" fill-opacity="0.6"/>
<path d="M77.9313 52.5C75.9982 52.5 74.4313 54.067 74.4313 56C74.4313 57.933 75.9982 59.5 77.9313 59.5H105.931C107.864 59.5 109.431 57.933 109.431 56C109.431 54.067 107.864 52.5 105.931 52.5H77.9313Z" fill="#6155F5" fill-opacity="0.8"/>
<path d="M77.9313 84C75.9982 84 74.4313 85.5669 74.4313 87.5C74.4313 89.433 75.9982 91 77.9313 91H105.931C107.864 91 109.431 89.433 109.431 87.5C109.431 85.5669 107.864 84 105.931 84H77.9313Z" fill="#6155F5" fill-opacity="0.8"/>
<path d="M46.0688 49.0073C44.1359 49.0073 42.5688 50.5743 42.5688 52.5073V70.0074C42.5688 71.9404 44.1359 73.5074 46.0688 73.5074H63.5688C65.5019 73.5074 67.0688 71.9404 67.0688 70.0074V52.5073C67.0688 50.5743 65.5019 49.0073 63.5688 49.0073H46.0688Z" fill="#6155F5"/>
<path d="M46.0688 80.4926C44.1359 80.4926 42.5688 82.0596 42.5688 83.9926V101.493C42.5688 103.426 44.1359 104.993 46.0688 104.993H63.5688C65.5019 104.993 67.0688 103.426 67.0688 101.493V83.9926C67.0688 82.0596 65.5019 80.4926 63.5688 80.4926H46.0688Z" fill="#6155F5"/>
<rect x="636" y="4.5" width="512" height="144" rx="72" fill="white"/>
<mask id="path-11-outside-1_2608_38" maskUnits="userSpaceOnUse" x="681.5" y="23.5" width="421" height="106" fill="black">
<rect fill="white" x="681.5" y="23.5" width="421" height="106"/>
<path d="M740.621 115.835L739.478 122.5H692.95L694.029 115.835H740.621ZM711.231 30.0781L695.235 122.5H687.554L703.55 30.0781H711.231ZM823.991 71.3379L822.404 81.1768C821.515 86.5934 819.971 91.862 817.77 96.9824C815.612 102.061 812.777 106.631 809.264 110.693C805.794 114.756 801.668 117.972 796.886 120.342C792.147 122.669 786.751 123.812 780.7 123.77C774.818 123.727 769.888 122.458 765.91 119.961C761.932 117.464 758.843 114.163 756.642 110.059C754.442 105.911 753.003 101.341 752.326 96.3477C751.691 91.3542 751.755 86.3184 752.516 81.2402L754.103 71.4014C754.95 65.9847 756.473 60.7373 758.674 55.6592C760.916 50.5387 763.773 45.9473 767.243 41.8848C770.755 37.8223 774.881 34.6273 779.621 32.2998C784.403 29.93 789.798 28.7663 795.807 28.8086C801.732 28.8509 806.662 30.1204 810.597 32.6172C814.575 35.1139 817.664 38.4147 819.865 42.5195C822.066 46.6243 823.483 51.1947 824.118 56.2305C824.753 61.224 824.71 66.2598 823.991 71.3379ZM814.787 81.2402L816.437 71.2109C817.03 67.1908 817.178 63.1283 816.882 59.0234C816.628 54.8763 815.739 51.0465 814.216 47.5342C812.734 44.0218 810.47 41.1865 807.424 39.0283C804.419 36.8701 800.441 35.7487 795.49 35.6641C790.581 35.6217 786.18 36.6162 782.287 38.6475C778.436 40.6364 775.114 43.3659 772.321 46.8359C769.528 50.2637 767.243 54.0934 765.466 58.3252C763.731 62.557 762.503 66.8522 761.784 71.2109L760.134 81.2402C759.541 85.2181 759.372 89.2806 759.626 93.4277C759.922 97.5749 760.811 101.405 762.292 104.917C763.815 108.429 766.079 111.286 769.084 113.486C772.131 115.687 776.087 116.829 780.954 116.914C785.99 116.999 790.433 116.025 794.284 113.994C798.177 111.963 801.52 109.233 804.313 105.806C807.106 102.378 809.37 98.527 811.105 94.2529C812.84 89.9788 814.067 85.6413 814.787 81.2402ZM908.44 71.3379L906.854 81.1768C905.965 86.5934 904.42 91.862 902.22 96.9824C900.062 102.061 897.226 106.631 893.714 110.693C890.244 114.756 886.118 117.972 881.336 120.342C876.596 122.669 871.201 123.812 865.149 123.77C859.267 123.727 854.337 122.458 850.359 119.961C846.382 117.464 843.292 114.163 841.092 110.059C838.891 105.911 837.452 101.341 836.775 96.3477C836.141 91.3542 836.204 86.3184 836.966 81.2402L838.553 71.4014C839.399 65.9847 840.923 60.7373 843.123 55.6592C845.366 50.5387 848.222 45.9473 851.692 41.8848C855.205 37.8223 859.331 34.6273 864.07 32.2998C868.852 29.93 874.248 28.7663 880.257 28.8086C886.181 28.8509 891.111 30.1204 895.047 32.6172C899.025 35.1139 902.114 38.4147 904.314 42.5195C906.515 46.6243 907.933 51.1947 908.567 56.2305C909.202 61.224 909.16 66.2598 908.44 71.3379ZM899.236 81.2402L900.887 71.2109C901.479 67.1908 901.627 63.1283 901.331 59.0234C901.077 54.8763 900.188 51.0465 898.665 47.5342C897.184 44.0218 894.92 41.1865 891.873 39.0283C888.868 36.8701 884.891 35.7487 879.939 35.6641C875.031 35.6217 870.63 36.6162 866.736 38.6475C862.885 40.6364 859.563 43.3659 856.77 46.8359C853.978 50.2637 851.692 54.0934 849.915 58.3252C848.18 62.557 846.953 66.8522 846.233 71.2109L844.583 81.2402C843.991 85.2181 843.821 89.2806 844.075 93.4277C844.371 97.5749 845.26 101.405 846.741 104.917C848.265 108.429 850.529 111.286 853.533 113.486C856.58 115.687 860.537 116.829 865.403 116.914C870.439 116.999 874.882 116.025 878.733 113.994C882.627 111.963 885.97 109.233 888.763 105.806C891.556 102.378 893.82 98.527 895.555 94.2529C897.29 89.9788 898.517 85.6413 899.236 81.2402ZM936.269 30.0146H943.632L962.675 111.328L1009.9 30.1416H1017.9L964.072 122.5H958.232L936.269 30.0146ZM933.793 30.0781H940.585L932.397 82.3193L925.414 122.5H917.797L933.793 30.0781ZM1013.39 30.0781H1020.18L1004.19 122.5H996.571L1003.62 81.8115L1013.39 30.0781ZM1041.73 30.0781H1070.36C1075.82 30.2051 1080.64 31.3053 1084.83 33.3789C1089.06 35.4525 1092.26 38.457 1094.41 42.3926C1096.62 46.3281 1097.36 51.1947 1096.64 56.9922C1096.04 61.6895 1094.58 65.752 1092.26 69.1797C1089.93 72.5651 1086.99 75.4004 1083.43 77.6855C1079.92 79.9284 1076.03 81.6846 1071.75 82.9541L1068.96 83.9697H1037.29L1038.3 77.3047L1063.88 77.3682C1067.99 77.3258 1071.82 76.4795 1075.37 74.8291C1078.93 73.1787 1081.91 70.8512 1084.32 67.8467C1086.73 64.7998 1088.28 61.1816 1088.96 56.9922C1089.63 52.6758 1089.23 49.0365 1087.75 46.0742C1086.31 43.112 1084.05 40.848 1080.96 39.2822C1077.91 37.7165 1074.33 36.8913 1070.23 36.8066H1048.2L1033.35 122.5H1025.73L1041.73 30.0781ZM1081.27 122.5L1065.15 81.1768L1072.9 81.0498L1089.4 121.611L1089.34 122.5H1081.27Z"/>
</mask>
<path d="M740.621 115.835L739.478 122.5H692.95L694.029 115.835H740.621ZM711.231 30.0781L695.235 122.5H687.554L703.55 30.0781H711.231ZM823.991 71.3379L822.404 81.1768C821.515 86.5934 819.971 91.862 817.77 96.9824C815.612 102.061 812.777 106.631 809.264 110.693C805.794 114.756 801.668 117.972 796.886 120.342C792.147 122.669 786.751 123.812 780.7 123.77C774.818 123.727 769.888 122.458 765.91 119.961C761.932 117.464 758.843 114.163 756.642 110.059C754.442 105.911 753.003 101.341 752.326 96.3477C751.691 91.3542 751.755 86.3184 752.516 81.2402L754.103 71.4014C754.95 65.9847 756.473 60.7373 758.674 55.6592C760.916 50.5387 763.773 45.9473 767.243 41.8848C770.755 37.8223 774.881 34.6273 779.621 32.2998C784.403 29.93 789.798 28.7663 795.807 28.8086C801.732 28.8509 806.662 30.1204 810.597 32.6172C814.575 35.1139 817.664 38.4147 819.865 42.5195C822.066 46.6243 823.483 51.1947 824.118 56.2305C824.753 61.224 824.71 66.2598 823.991 71.3379ZM814.787 81.2402L816.437 71.2109C817.03 67.1908 817.178 63.1283 816.882 59.0234C816.628 54.8763 815.739 51.0465 814.216 47.5342C812.734 44.0218 810.47 41.1865 807.424 39.0283C804.419 36.8701 800.441 35.7487 795.49 35.6641C790.581 35.6217 786.18 36.6162 782.287 38.6475C778.436 40.6364 775.114 43.3659 772.321 46.8359C769.528 50.2637 767.243 54.0934 765.466 58.3252C763.731 62.557 762.503 66.8522 761.784 71.2109L760.134 81.2402C759.541 85.2181 759.372 89.2806 759.626 93.4277C759.922 97.5749 760.811 101.405 762.292 104.917C763.815 108.429 766.079 111.286 769.084 113.486C772.131 115.687 776.087 116.829 780.954 116.914C785.99 116.999 790.433 116.025 794.284 113.994C798.177 111.963 801.52 109.233 804.313 105.806C807.106 102.378 809.37 98.527 811.105 94.2529C812.84 89.9788 814.067 85.6413 814.787 81.2402ZM908.44 71.3379L906.854 81.1768C905.965 86.5934 904.42 91.862 902.22 96.9824C900.062 102.061 897.226 106.631 893.714 110.693C890.244 114.756 886.118 117.972 881.336 120.342C876.596 122.669 871.201 123.812 865.149 123.77C859.267 123.727 854.337 122.458 850.359 119.961C846.382 117.464 843.292 114.163 841.092 110.059C838.891 105.911 837.452 101.341 836.775 96.3477C836.141 91.3542 836.204 86.3184 836.966 81.2402L838.553 71.4014C839.399 65.9847 840.923 60.7373 843.123 55.6592C845.366 50.5387 848.222 45.9473 851.692 41.8848C855.205 37.8223 859.331 34.6273 864.07 32.2998C868.852 29.93 874.248 28.7663 880.257 28.8086C886.181 28.8509 891.111 30.1204 895.047 32.6172C899.025 35.1139 902.114 38.4147 904.314 42.5195C906.515 46.6243 907.933 51.1947 908.567 56.2305C909.202 61.224 909.16 66.2598 908.44 71.3379ZM899.236 81.2402L900.887 71.2109C901.479 67.1908 901.627 63.1283 901.331 59.0234C901.077 54.8763 900.188 51.0465 898.665 47.5342C897.184 44.0218 894.92 41.1865 891.873 39.0283C888.868 36.8701 884.891 35.7487 879.939 35.6641C875.031 35.6217 870.63 36.6162 866.736 38.6475C862.885 40.6364 859.563 43.3659 856.77 46.8359C853.978 50.2637 851.692 54.0934 849.915 58.3252C848.18 62.557 846.953 66.8522 846.233 71.2109L844.583 81.2402C843.991 85.2181 843.821 89.2806 844.075 93.4277C844.371 97.5749 845.26 101.405 846.741 104.917C848.265 108.429 850.529 111.286 853.533 113.486C856.58 115.687 860.537 116.829 865.403 116.914C870.439 116.999 874.882 116.025 878.733 113.994C882.627 111.963 885.97 109.233 888.763 105.806C891.556 102.378 893.82 98.527 895.555 94.2529C897.29 89.9788 898.517 85.6413 899.236 81.2402ZM936.269 30.0146H943.632L962.675 111.328L1009.9 30.1416H1017.9L964.072 122.5H958.232L936.269 30.0146ZM933.793 30.0781H940.585L932.397 82.3193L925.414 122.5H917.797L933.793 30.0781ZM1013.39 30.0781H1020.18L1004.19 122.5H996.571L1003.62 81.8115L1013.39 30.0781ZM1041.73 30.0781H1070.36C1075.82 30.2051 1080.64 31.3053 1084.83 33.3789C1089.06 35.4525 1092.26 38.457 1094.41 42.3926C1096.62 46.3281 1097.36 51.1947 1096.64 56.9922C1096.04 61.6895 1094.58 65.752 1092.26 69.1797C1089.93 72.5651 1086.99 75.4004 1083.43 77.6855C1079.92 79.9284 1076.03 81.6846 1071.75 82.9541L1068.96 83.9697H1037.29L1038.3 77.3047L1063.88 77.3682C1067.99 77.3258 1071.82 76.4795 1075.37 74.8291C1078.93 73.1787 1081.91 70.8512 1084.32 67.8467C1086.73 64.7998 1088.28 61.1816 1088.96 56.9922C1089.63 52.6758 1089.23 49.0365 1087.75 46.0742C1086.31 43.112 1084.05 40.848 1080.96 39.2822C1077.91 37.7165 1074.33 36.8913 1070.23 36.8066H1048.2L1033.35 122.5H1025.73L1041.73 30.0781ZM1081.27 122.5L1065.15 81.1768L1072.9 81.0498L1089.4 121.611L1089.34 122.5H1081.27Z" fill="#6155F5"/>
<path d="M740.621 115.835L745.549 116.68L746.551 110.835H740.621V115.835ZM739.478 122.5V127.5H743.694L744.406 123.345L739.478 122.5ZM692.95 122.5L688.014 121.701L687.075 127.5H692.95V122.5ZM694.029 115.835V110.835H689.773L689.093 115.036L694.029 115.835ZM711.231 30.0781L716.158 30.9308L717.171 25.0781H711.231V30.0781ZM695.235 122.5V127.5H699.444L700.162 123.353L695.235 122.5ZM687.554 122.5L682.627 121.647L681.614 127.5H687.554V122.5ZM703.55 30.0781V25.0781H699.341L698.624 29.2254L703.55 30.0781ZM740.621 115.835L735.693 114.99L734.55 121.655L739.478 122.5L744.406 123.345L745.549 116.68L740.621 115.835ZM739.478 122.5V117.5H692.95V122.5V127.5H739.478V122.5ZM692.95 122.5L697.885 123.299L698.965 116.634L694.029 115.835L689.093 115.036L688.014 121.701L692.95 122.5ZM694.029 115.835V120.835H740.621V115.835V110.835H694.029V115.835ZM711.231 30.0781L706.304 29.2254L690.308 121.647L695.235 122.5L700.162 123.353L716.158 30.9308L711.231 30.0781ZM695.235 122.5V117.5H687.554V122.5V127.5H695.235V122.5ZM687.554 122.5L692.481 123.353L708.477 30.9308L703.55 30.0781L698.624 29.2254L682.627 121.647L687.554 122.5ZM703.55 30.0781V35.0781H711.231V30.0781V25.0781H703.55V30.0781ZM823.991 71.3379L828.927 72.1341L828.935 72.0867L828.942 72.0392L823.991 71.3379ZM822.404 81.1768L827.338 81.9862L827.34 81.9729L822.404 81.1768ZM817.77 96.9824L813.177 95.0082L813.173 95.0175L813.169 95.0267L817.77 96.9824ZM809.264 110.693L805.482 107.423L805.472 107.435L805.463 107.446L809.264 110.693ZM796.886 120.342L799.09 124.83L799.099 124.826L799.107 124.822L796.886 120.342ZM780.7 123.77L780.664 128.769L780.665 128.769L780.7 123.77ZM756.642 110.059L752.226 112.402L752.231 112.412L752.236 112.421L756.642 110.059ZM752.326 96.3477L747.366 96.9782L747.368 96.9988L747.371 97.0195L752.326 96.3477ZM752.516 81.2402L747.58 80.4441L747.576 80.4713L747.572 80.4985L752.516 81.2402ZM754.103 71.4014L759.039 72.1975L759.041 72.1854L759.043 72.1732L754.103 71.4014ZM758.674 55.6592L754.094 53.6531L754.09 53.6621L754.086 53.6711L758.674 55.6592ZM767.243 41.8848L763.461 38.6146L763.451 38.6259L763.441 38.6373L767.243 41.8848ZM779.621 32.2998L781.825 36.7879L781.833 36.7839L781.841 36.7798L779.621 32.2998ZM795.807 28.8086L795.843 23.8087L795.843 23.8087L795.807 28.8086ZM810.597 32.6172L807.919 36.8392L807.929 36.8457L807.939 36.8521L810.597 32.6172ZM824.118 56.2305L819.157 56.8558L819.158 56.861L824.118 56.2305ZM814.787 81.2402L809.853 80.4284L809.852 80.4336L814.787 81.2402ZM816.437 71.2109L821.371 72.0228L821.378 71.9814L821.384 71.9399L816.437 71.2109ZM816.882 59.0234L811.891 59.329L811.893 59.3562L811.895 59.3833L816.882 59.0234ZM814.216 47.5342L809.608 49.4769L809.618 49.5004L809.628 49.5238L814.216 47.5342ZM807.424 39.0283L804.507 43.0892L804.52 43.0989L804.533 43.1084L807.424 39.0283ZM795.49 35.6641L795.575 30.6648L795.554 30.6644L795.533 30.6642L795.49 35.6641ZM782.287 38.6475L784.581 43.0899L784.591 43.0852L784.6 43.0804L782.287 38.6475ZM772.321 46.8359L776.197 49.9943L776.207 49.9827L776.216 49.971L772.321 46.8359ZM765.466 58.3252L760.856 56.389L760.847 56.4087L760.839 56.4284L765.466 58.3252ZM761.784 71.2109L756.851 70.3967L756.85 70.3991L761.784 71.2109ZM760.134 81.2402L755.2 80.4284L755.194 80.466L755.188 80.5037L760.134 81.2402ZM759.626 93.4277L754.635 93.7333L754.637 93.7586L754.638 93.784L759.626 93.4277ZM762.292 104.917L757.685 106.86L757.695 106.883L757.705 106.907L762.292 104.917ZM769.084 113.486L766.129 117.52L766.143 117.53L766.156 117.54L769.084 113.486ZM780.954 116.914L780.867 121.913L780.87 121.913L780.954 116.914ZM794.284 113.994L791.971 109.561L791.961 109.566L791.951 109.572L794.284 113.994ZM823.991 71.3379L819.055 70.5417L817.468 80.3806L822.404 81.1768L827.34 81.9729L828.927 72.1341L823.991 71.3379ZM822.404 81.1768L817.47 80.3673C816.648 85.3772 815.219 90.255 813.177 95.0082L817.77 96.9824L822.364 98.9566C824.722 93.4689 826.383 87.8097 827.338 81.9862L822.404 81.1768ZM817.77 96.9824L813.169 95.0267C811.208 99.6401 808.645 103.764 805.482 107.423L809.264 110.693L813.047 113.964C816.908 109.497 820.016 104.481 822.372 98.9381L817.77 96.9824ZM809.264 110.693L805.463 107.446C802.431 110.996 798.842 113.792 794.666 115.862L796.886 120.342L799.107 124.822C804.494 122.152 809.158 118.516 813.066 113.941L809.264 110.693ZM796.886 120.342L794.683 115.854C790.735 117.792 786.124 118.807 780.735 118.77L780.7 123.77L780.665 128.769C787.379 128.816 793.559 127.546 799.09 124.83L796.886 120.342ZM780.7 123.77L780.736 118.77C775.549 118.732 771.583 117.619 768.568 115.726L765.91 119.961L763.252 124.196C768.192 127.297 774.087 128.722 780.664 128.769L780.7 123.77ZM765.91 119.961L768.568 115.726C765.319 113.687 762.836 111.029 761.049 107.696L756.642 110.059L752.236 112.421C754.85 117.298 758.545 121.241 763.252 124.196L765.91 119.961ZM756.642 110.059L761.059 107.715C759.155 104.126 757.884 100.128 757.281 95.6758L752.326 96.3477L747.371 97.0195C748.122 102.554 749.729 107.697 752.226 112.402L756.642 110.059ZM752.326 96.3477L757.286 95.7171C756.71 91.1888 756.766 86.6148 757.461 81.9819L752.516 81.2402L747.572 80.4985C746.743 86.022 746.672 91.5196 747.366 96.9782L752.326 96.3477ZM752.516 81.2402L757.453 82.0364L759.039 72.1975L754.103 71.4014L749.167 70.6052L747.58 80.4441L752.516 81.2402ZM754.103 71.4014L759.043 72.1732C759.824 67.1792 761.228 62.3402 763.261 57.6472L758.674 55.6592L754.086 53.6711C751.718 59.1344 750.076 64.7901 749.163 70.6295L754.103 71.4014ZM758.674 55.6592L763.254 57.6653C765.309 52.9736 767.908 48.8044 771.045 45.1322L767.243 41.8848L763.441 38.6373C759.638 43.0901 756.524 48.1038 754.094 53.6531L758.674 55.6592ZM767.243 41.8848L771.025 45.1549C774.106 41.5913 777.698 38.8143 781.825 36.7879L779.621 32.2998L777.417 27.8118C772.064 30.4403 767.404 34.0532 763.461 38.6146L767.243 41.8848ZM779.621 32.2998L781.841 36.7798C785.838 34.799 790.446 33.771 795.772 33.8085L795.807 28.8086L795.843 23.8087C789.151 23.7616 782.967 25.0611 777.401 27.8198L779.621 32.2998ZM795.807 28.8086L795.772 33.8085C801.011 33.8459 804.962 34.9636 807.919 36.8392L810.597 32.6172L813.276 28.3951C808.361 25.2773 802.453 23.8559 795.843 23.8087L795.807 28.8086ZM810.597 32.6172L807.939 36.8521C811.188 38.8912 813.672 41.5493 815.458 44.8819L819.865 42.5195L824.272 40.1572C821.657 35.2802 817.963 31.3367 813.255 28.3823L810.597 32.6172ZM819.865 42.5195L815.458 44.8819C817.344 48.4 818.592 52.3733 819.157 56.8558L824.118 56.2305L829.079 55.6052C828.374 50.016 826.787 44.8487 824.272 40.1572L819.865 42.5195ZM824.118 56.2305L819.158 56.861C819.735 61.4037 819.698 65.9916 819.04 70.6366L823.991 71.3379L828.942 72.0392C829.722 66.528 829.77 61.0442 829.078 55.5999L824.118 56.2305ZM814.787 81.2402L819.721 82.0521L821.371 72.0228L816.437 71.2109L811.504 70.3991L809.853 80.4284L814.787 81.2402ZM816.437 71.2109L821.384 71.9399C822.03 67.5547 822.191 63.127 821.869 58.6635L816.882 59.0234L811.895 59.3833C812.165 63.1295 812.029 66.8268 811.491 70.482L816.437 71.2109ZM816.882 59.0234L821.872 58.7179C821.586 54.0398 820.577 49.6343 818.803 45.5446L814.216 47.5342L809.628 49.5238C810.901 52.4588 811.67 55.7128 811.891 59.329L816.882 59.0234ZM814.216 47.5342L818.823 45.5914C816.988 41.2395 814.137 37.6567 810.314 34.9482L807.424 39.0283L804.533 43.1084C806.803 44.7163 808.481 46.8042 809.608 49.4769L814.216 47.5342ZM807.424 39.0283L810.341 34.9674C806.272 32.0447 801.205 30.761 795.575 30.6648L795.49 35.6641L795.405 40.6633C799.677 40.7364 802.566 41.6955 804.507 43.0892L807.424 39.0283ZM795.49 35.6641L795.533 30.6642C789.903 30.6157 784.677 31.761 779.974 34.2145L782.287 38.6475L784.6 43.0804C787.684 41.4714 791.26 40.6278 795.447 40.6639L795.49 35.6641ZM782.287 38.6475L779.992 34.205C775.505 36.5225 771.643 39.7038 768.426 43.7009L772.321 46.8359L776.216 49.971C778.585 47.028 781.367 44.7503 784.581 43.0899L782.287 38.6475ZM772.321 46.8359L768.445 43.6776C765.339 47.4895 762.811 51.7338 760.856 56.389L765.466 58.3252L770.075 60.2614C771.675 56.4531 773.717 53.0379 776.197 49.9943L772.321 46.8359ZM765.466 58.3252L760.839 56.4284C758.967 60.996 757.633 65.6538 756.851 70.3967L761.784 71.2109L766.717 72.0252C767.373 68.0506 768.495 64.1179 770.092 60.222L765.466 58.3252ZM761.784 71.2109L756.85 70.3991L755.2 80.4284L760.134 81.2402L765.067 82.0521L766.718 72.0228L761.784 71.2109ZM760.134 81.2402L755.188 80.5037C754.543 84.8376 754.361 89.2497 754.635 93.7333L759.626 93.4277L764.616 93.1222C764.383 89.3115 764.54 85.5986 765.079 81.9768L760.134 81.2402ZM759.626 93.4277L754.638 93.784C754.97 98.4278 755.972 102.799 757.685 106.86L762.292 104.917L766.899 102.974C765.649 100.01 764.874 96.722 764.613 93.0715L759.626 93.4277ZM762.292 104.917L757.705 106.907C759.571 111.209 762.388 114.78 766.129 117.52L769.084 113.486L772.038 109.452C769.77 107.792 768.059 105.649 766.879 102.927L762.292 104.917ZM769.084 113.486L766.156 117.54C770.245 120.493 775.279 121.816 780.867 121.913L780.954 116.914L781.041 111.915C776.896 111.843 774.016 110.881 772.011 109.433L769.084 113.486ZM780.954 116.914L780.87 121.913C786.614 122.01 791.912 120.898 796.617 118.417L794.284 113.994L791.951 109.572C788.954 111.153 785.365 111.987 781.038 111.915L780.954 116.914ZM794.284 113.994L796.597 118.427C801.097 116.079 804.97 112.915 808.189 108.964L804.313 105.806L800.437 102.647C798.07 105.552 795.258 107.846 791.971 109.561L794.284 113.994ZM804.313 105.806L808.189 108.964C811.31 105.134 813.824 100.849 815.738 96.1336L811.105 94.2529L806.472 92.3723C804.916 96.2052 802.902 99.6219 800.437 102.647L804.313 105.806ZM811.105 94.2529L815.738 96.1336C817.609 91.5257 818.94 86.8285 819.721 82.0468L814.787 81.2402L809.852 80.4336C809.195 84.4541 808.072 88.4319 806.472 92.3723L811.105 94.2529ZM908.44 71.3379L913.377 72.1341L913.384 72.0867L913.391 72.0392L908.44 71.3379ZM906.854 81.1768L911.788 81.9862L911.79 81.9729L906.854 81.1768ZM902.22 96.9824L897.626 95.0082L897.622 95.0175L897.618 95.0267L902.22 96.9824ZM893.714 110.693L889.932 107.423L889.922 107.435L889.912 107.446L893.714 110.693ZM881.336 120.342L883.54 124.83L883.548 124.826L883.556 124.822L881.336 120.342ZM865.149 123.77L865.113 128.769L865.114 128.769L865.149 123.77ZM841.092 110.059L836.675 112.402L836.68 112.412L836.685 112.421L841.092 110.059ZM836.775 96.3477L831.815 96.9782L831.818 96.9988L831.821 97.0195L836.775 96.3477ZM836.966 81.2402L832.03 80.4441L832.025 80.4713L832.021 80.4985L836.966 81.2402ZM838.553 71.4014L843.489 72.1975L843.491 72.1854L843.493 72.1732L838.553 71.4014ZM843.123 55.6592L838.543 53.6531L838.539 53.6621L838.535 53.6711L843.123 55.6592ZM851.692 41.8848L847.91 38.6146L847.9 38.6259L847.891 38.6373L851.692 41.8848ZM864.07 32.2998L866.274 36.7879L866.282 36.7839L866.29 36.7798L864.07 32.2998ZM880.257 28.8086L880.293 23.8087L880.292 23.8087L880.257 28.8086ZM895.047 32.6172L892.368 36.8392L892.379 36.8457L892.389 36.8521L895.047 32.6172ZM908.567 56.2305L903.607 56.8558L903.607 56.861L908.567 56.2305ZM899.236 81.2402L894.303 80.4284L894.302 80.4336L899.236 81.2402ZM900.887 71.2109L905.82 72.0228L905.827 71.9814L905.833 71.9399L900.887 71.2109ZM901.331 59.0234L896.34 59.329L896.342 59.3562L896.344 59.3833L901.331 59.0234ZM898.665 47.5342L894.058 49.4769L894.068 49.5004L894.078 49.5238L898.665 47.5342ZM891.873 39.0283L888.956 43.0892L888.969 43.0989L888.983 43.1084L891.873 39.0283ZM879.939 35.6641L880.025 30.6648L880.004 30.6644L879.983 30.6642L879.939 35.6641ZM866.736 38.6475L869.031 43.0899L869.04 43.0852L869.049 43.0804L866.736 38.6475ZM856.77 46.8359L860.647 49.9943L860.656 49.9827L860.666 49.971L856.77 46.8359ZM849.915 58.3252L845.305 56.389L845.297 56.4087L845.289 56.4284L849.915 58.3252ZM846.233 71.2109L841.3 70.3967L841.3 70.3991L846.233 71.2109ZM844.583 81.2402L839.649 80.4284L839.643 80.466L839.638 80.5037L844.583 81.2402ZM844.075 93.4277L839.085 93.7333L839.086 93.7586L839.088 93.784L844.075 93.4277ZM846.741 104.917L842.134 106.86L842.144 106.883L842.154 106.907L846.741 104.917ZM853.533 113.486L850.579 117.52L850.592 117.53L850.606 117.54L853.533 113.486ZM865.403 116.914L865.316 121.913L865.319 121.913L865.403 116.914ZM878.733 113.994L876.421 109.561L876.411 109.566L876.401 109.572L878.733 113.994ZM908.44 71.3379L903.504 70.5417L901.917 80.3806L906.854 81.1768L911.79 81.9729L913.377 72.1341L908.44 71.3379ZM906.854 81.1768L901.919 80.3673C901.098 85.3772 899.669 90.255 897.626 95.0082L902.22 96.9824L906.813 98.9566C909.172 93.4689 910.832 87.8097 911.788 81.9862L906.854 81.1768ZM902.22 96.9824L897.618 95.0267C895.657 99.6401 893.095 103.764 889.932 107.423L893.714 110.693L897.496 113.964C901.358 109.497 904.466 104.481 906.821 98.9381L902.22 96.9824ZM893.714 110.693L889.912 107.446C886.88 110.996 883.292 113.792 879.116 115.862L881.336 120.342L883.556 124.822C888.944 122.152 893.608 118.516 897.516 113.941L893.714 110.693ZM881.336 120.342L879.132 115.854C875.184 117.792 870.574 118.807 865.184 118.77L865.149 123.77L865.114 128.769C871.828 128.816 878.008 127.546 883.54 124.83L881.336 120.342ZM865.149 123.77L865.185 118.77C859.999 118.732 856.033 117.619 853.017 115.726L850.359 119.961L847.701 124.196C852.642 127.297 858.536 128.722 865.113 128.769L865.149 123.77ZM850.359 119.961L853.017 115.726C849.769 113.687 847.285 111.029 845.499 107.696L841.092 110.059L836.685 112.421C839.3 117.298 842.994 121.241 847.701 124.196L850.359 119.961ZM841.092 110.059L845.509 107.715C843.604 104.126 842.334 100.128 841.73 95.6758L836.775 96.3477L831.821 97.0195C832.571 102.554 834.178 107.697 836.675 112.402L841.092 110.059ZM836.775 96.3477L841.735 95.7171C841.16 91.1888 841.216 86.6148 841.91 81.9819L836.966 81.2402L832.021 80.4985C831.193 86.022 831.121 91.5196 831.815 96.9782L836.775 96.3477ZM836.966 81.2402L841.902 82.0364L843.489 72.1975L838.553 71.4014L833.617 70.6052L832.03 80.4441L836.966 81.2402ZM838.553 71.4014L843.493 72.1732C844.273 67.1792 845.677 62.3402 847.711 57.6472L843.123 55.6592L838.535 53.6711C836.168 59.1344 834.525 64.7901 833.613 70.6295L838.553 71.4014ZM843.123 55.6592L847.703 57.6653C849.758 52.9736 852.358 48.8044 855.494 45.1322L851.692 41.8848L847.891 38.6373C844.087 43.0901 840.974 48.1038 838.543 53.6531L843.123 55.6592ZM851.692 41.8848L855.475 45.1549C858.556 41.5913 862.148 38.8143 866.274 36.7879L864.07 32.2998L861.866 27.8118C856.514 30.4403 851.854 34.0532 847.91 38.6146L851.692 41.8848ZM864.07 32.2998L866.29 36.7798C870.288 34.799 874.895 33.771 880.222 33.8085L880.257 28.8086L880.292 23.8087C873.6 23.7616 867.417 25.0611 861.85 27.8198L864.07 32.2998ZM880.257 28.8086L880.221 33.8085C885.461 33.8459 889.412 34.9636 892.368 36.8392L895.047 32.6172L897.725 28.3951C892.811 25.2773 886.902 23.8559 880.293 23.8087L880.257 28.8086ZM895.047 32.6172L892.389 36.8521C895.637 38.8912 898.121 41.5493 899.908 44.8819L904.314 42.5195L908.721 40.1572C906.107 35.2802 902.412 31.3367 897.705 28.3823L895.047 32.6172ZM904.314 42.5195L899.908 44.8819C901.794 48.4 903.042 52.3733 903.607 56.8558L908.567 56.2305L913.528 55.6052C912.824 50.016 911.236 44.8487 908.721 40.1572L904.314 42.5195ZM908.567 56.2305L903.607 56.861C904.185 61.4037 904.148 65.9916 903.49 70.6366L908.44 71.3379L913.391 72.0392C914.172 66.528 914.22 61.0442 913.527 55.5999L908.567 56.2305ZM899.236 81.2402L904.17 82.0521L905.82 72.0228L900.887 71.2109L895.953 70.3991L894.303 80.4284L899.236 81.2402ZM900.887 71.2109L905.833 71.9399C906.48 67.5547 906.64 63.127 906.318 58.6635L901.331 59.0234L896.344 59.3833C896.614 63.1295 896.479 66.8268 895.94 70.482L900.887 71.2109ZM901.331 59.0234L906.322 58.7179C906.035 54.0398 905.026 49.6343 903.252 45.5446L898.665 47.5342L894.078 49.5238C895.351 52.4588 896.119 55.7128 896.34 59.329L901.331 59.0234ZM898.665 47.5342L903.272 45.5914C901.437 41.2395 898.587 37.6567 894.763 34.9482L891.873 39.0283L888.983 43.1084C891.253 44.7163 892.931 46.8042 894.058 49.4769L898.665 47.5342ZM891.873 39.0283L894.79 34.9674C890.721 32.0447 885.655 30.761 880.025 30.6648L879.939 35.6641L879.854 40.6633C884.126 40.7364 887.016 41.6955 888.956 43.0892L891.873 39.0283ZM879.939 35.6641L879.983 30.6642C874.352 30.6157 869.126 31.761 864.423 34.2145L866.736 38.6475L869.049 43.0804C872.133 41.4714 875.709 40.6278 879.896 40.6639L879.939 35.6641ZM866.736 38.6475L864.442 34.205C859.955 36.5225 856.093 39.7038 852.875 43.7009L856.77 46.8359L860.666 49.971C863.034 47.028 865.816 44.7503 869.031 43.0899L866.736 38.6475ZM856.77 46.8359L852.894 43.6776C849.788 47.4895 847.26 51.7338 845.305 56.389L849.915 58.3252L854.525 60.2614C856.124 56.4531 858.167 53.0379 860.647 49.9943L856.77 46.8359ZM849.915 58.3252L845.289 56.4284C843.416 60.996 842.083 65.6538 841.3 70.3967L846.233 71.2109L851.167 72.0252C851.823 68.0506 852.944 64.1179 854.541 60.222L849.915 58.3252ZM846.233 71.2109L841.3 70.3991L839.649 80.4284L844.583 81.2402L849.517 82.0521L851.167 72.0228L846.233 71.2109ZM844.583 81.2402L839.638 80.5037C838.992 84.8376 838.81 89.2497 839.085 93.7333L844.075 93.4277L849.066 93.1222C848.833 89.3115 848.989 85.5986 849.528 81.9768L844.583 81.2402ZM844.075 93.4277L839.088 93.784C839.42 98.4278 840.422 102.799 842.134 106.86L846.741 104.917L851.348 102.974C850.098 100.01 849.323 96.722 849.062 93.0715L844.075 93.4277ZM846.741 104.917L842.154 106.907C844.02 111.209 846.838 114.78 850.579 117.52L853.533 113.486L856.488 109.452C854.22 107.792 852.509 105.649 851.328 102.927L846.741 104.917ZM853.533 113.486L850.606 117.54C854.694 120.493 859.728 121.816 865.316 121.913L865.403 116.914L865.49 111.915C861.345 111.843 858.466 110.881 856.461 109.433L853.533 113.486ZM865.403 116.914L865.319 121.913C871.063 122.01 876.362 120.898 881.066 118.417L878.733 113.994L876.401 109.572C873.403 111.153 869.815 111.987 865.487 111.915L865.403 116.914ZM878.733 113.994L881.046 118.427C885.546 116.079 889.42 112.915 892.639 108.964L888.763 105.806L884.887 102.647C882.52 105.552 879.707 107.846 876.421 109.561L878.733 113.994ZM888.763 105.806L892.639 108.964C895.76 105.134 898.273 100.849 900.188 96.1336L895.555 94.2529L890.922 92.3723C889.366 96.2052 887.352 99.6219 884.887 102.647L888.763 105.806ZM895.555 94.2529L900.188 96.1336C902.058 91.5257 903.389 86.8285 904.171 82.0468L899.236 81.2402L894.302 80.4336C893.645 84.4541 892.521 88.4319 890.922 92.3723L895.555 94.2529ZM936.269 30.0146V25.0146H929.942L931.404 31.1699L936.269 30.0146ZM943.632 30.0146L948.5 28.8745L947.596 25.0146H943.632V30.0146ZM962.675 111.328L957.807 112.468L960.674 124.712L966.997 113.842L962.675 111.328ZM1009.9 30.1416V25.1416H1007.03L1005.58 27.6275L1009.9 30.1416ZM1017.9 30.1416L1022.22 32.6593L1026.6 25.1416H1017.9V30.1416ZM964.072 122.5V127.5H966.945L968.391 125.018L964.072 122.5ZM958.232 122.5L953.367 123.655L954.28 127.5H958.232V122.5ZM933.793 30.0781V25.0781H929.584L928.866 29.2254L933.793 30.0781ZM940.585 30.0781L945.525 30.8524L946.43 25.0781H940.585V30.0781ZM932.397 82.3193L937.323 83.1754L937.33 83.1345L937.336 83.0936L932.397 82.3193ZM925.414 122.5V127.5H929.62L930.34 123.356L925.414 122.5ZM917.797 122.5L912.87 121.647L911.857 127.5H917.797V122.5ZM1013.39 30.0781V25.0781H1009.25L1008.48 29.1498L1013.39 30.0781ZM1020.18 30.0781L1025.11 30.9308L1026.12 25.0781H1020.18V30.0781ZM1004.19 122.5V127.5H1008.4L1009.12 123.353L1004.19 122.5ZM996.571 122.5L991.645 121.647L990.631 127.5H996.571V122.5ZM1003.62 81.8115L998.704 80.8832L998.697 80.9207L998.691 80.9584L1003.62 81.8115ZM936.269 30.0146V35.0146H943.632V30.0146V25.0146H936.269V30.0146ZM943.632 30.0146L938.764 31.1548L957.807 112.468L962.675 111.328L967.543 110.188L948.5 28.8745L943.632 30.0146ZM962.675 111.328L966.997 113.842L1014.22 32.6557L1009.9 30.1416L1005.58 27.6275L958.353 108.814L962.675 111.328ZM1009.9 30.1416V35.1416H1017.9V30.1416V25.1416H1009.9V30.1416ZM1017.9 30.1416L1013.58 27.6239L959.752 119.982L964.072 122.5L968.391 125.018L1022.22 32.6593L1017.9 30.1416ZM964.072 122.5V117.5H958.232V122.5V127.5H964.072V122.5ZM958.232 122.5L963.096 121.345L941.133 28.8594L936.269 30.0146L931.404 31.1699L953.367 123.655L958.232 122.5ZM933.793 30.0781V35.0781H940.585V30.0781V25.0781H933.793V30.0781ZM940.585 30.0781L935.645 29.3039L927.457 81.5451L932.397 82.3193L937.336 83.0936L945.525 30.8524L940.585 30.0781ZM932.397 82.3193L927.471 81.4633L920.488 121.644L925.414 122.5L930.34 123.356L937.323 83.1754L932.397 82.3193ZM925.414 122.5V117.5H917.797V122.5V127.5H925.414V122.5ZM917.797 122.5L922.724 123.353L938.72 30.9308L933.793 30.0781L928.866 29.2254L912.87 121.647L917.797 122.5ZM1013.39 30.0781V35.0781H1020.18V30.0781V25.0781H1013.39V30.0781ZM1020.18 30.0781L1015.26 29.2254L999.262 121.647L1004.19 122.5L1009.12 123.353L1025.11 30.9308L1020.18 30.0781ZM1004.19 122.5V117.5H996.571V122.5V127.5H1004.19V122.5ZM996.571 122.5L1001.5 123.353L1008.54 82.6647L1003.62 81.8115L998.691 80.9584L991.645 121.647L996.571 122.5ZM1003.62 81.8115L1008.53 82.7399L1018.31 31.0065L1013.39 30.0781L1008.48 29.1498L998.704 80.8832L1003.62 81.8115ZM1041.73 30.0781V25.0781H1037.52L1036.8 29.2254L1041.73 30.0781ZM1070.36 30.0781L1070.47 25.0795L1070.42 25.0781H1070.36V30.0781ZM1084.83 33.3789L1082.61 37.8601L1082.62 37.8645L1082.63 37.8689L1084.83 33.3789ZM1094.41 42.3926L1090.03 44.7967L1090.04 44.8148L1090.05 44.8327L1094.41 42.3926ZM1096.64 56.9922L1101.6 57.6179L1101.6 57.6079L1096.64 56.9922ZM1092.26 69.1797L1096.38 72.0123L1096.38 72.0004L1096.39 71.9884L1092.26 69.1797ZM1083.43 77.6855L1086.12 81.8997L1086.13 81.8956L1086.14 81.8914L1083.43 77.6855ZM1071.75 82.9541L1070.33 78.1611L1070.19 78.2038L1070.04 78.2551L1071.75 82.9541ZM1068.96 83.9697V88.9697H1069.84L1070.67 88.6687L1068.96 83.9697ZM1037.29 83.9697L1032.34 83.2165L1031.47 88.9697H1037.29V83.9697ZM1038.3 77.3047L1038.31 72.3047L1034.01 72.294L1033.36 76.5515L1038.3 77.3047ZM1063.88 77.3682L1063.87 82.3681L1063.9 82.3682L1063.93 82.3679L1063.88 77.3682ZM1084.32 67.8467L1088.22 70.9768L1088.23 70.9636L1088.24 70.9502L1084.32 67.8467ZM1088.96 56.9922L1093.89 57.7899L1093.89 57.7785L1093.9 57.767L1088.96 56.9922ZM1087.75 46.0742L1083.25 48.2587L1083.26 48.2846L1083.28 48.3103L1087.75 46.0742ZM1080.96 39.2822L1078.67 43.7294L1078.68 43.7358L1078.7 43.7421L1080.96 39.2822ZM1070.23 36.8066L1070.33 31.8077L1070.28 31.8066H1070.23V36.8066ZM1048.2 36.8066V31.8066H1044L1043.28 35.9527L1048.2 36.8066ZM1033.35 122.5V127.5H1037.56L1038.28 123.354L1033.35 122.5ZM1025.73 122.5L1020.81 121.647L1019.79 127.5H1025.73V122.5ZM1081.27 122.5L1076.62 124.317L1077.86 127.5H1081.27V122.5ZM1065.15 81.1768L1065.07 76.1774L1057.88 76.2953L1060.49 82.9942L1065.15 81.1768ZM1072.9 81.0498L1077.53 79.1654L1076.24 75.9944L1072.81 76.0505L1072.9 81.0498ZM1089.4 121.611L1094.39 121.968L1094.47 120.806L1094.03 119.727L1089.4 121.611ZM1089.34 122.5V127.5H1093.99L1094.32 122.856L1089.34 122.5ZM1041.73 30.0781V35.0781H1070.36V30.0781V25.0781H1041.73V30.0781ZM1070.36 30.0781L1070.24 35.0768C1075.09 35.1896 1079.18 36.1604 1082.61 37.8601L1084.83 33.3789L1087.05 28.8978C1082.1 26.4503 1076.54 25.2206 1070.47 25.0795L1070.36 30.0781ZM1084.83 33.3789L1082.63 37.8689C1085.98 39.5129 1088.39 41.8117 1090.03 44.7967L1094.41 42.3926L1098.8 39.9884C1096.12 35.1024 1092.14 31.392 1087.03 28.889L1084.83 33.3789ZM1094.41 42.3926L1090.05 44.8327C1091.6 47.5977 1092.3 51.3228 1091.67 56.3765L1096.64 56.9922L1101.6 57.6079C1102.41 51.0665 1101.63 45.0585 1098.78 39.9524L1094.41 42.3926ZM1096.64 56.9922L1091.68 56.3665C1091.17 60.3936 1089.94 63.6833 1088.12 66.3709L1092.26 69.1797L1096.39 71.9884C1099.22 67.8206 1100.92 62.9853 1101.6 57.6179L1096.64 56.9922ZM1092.26 69.1797L1088.14 66.347C1086.2 69.1694 1083.74 71.5431 1080.73 73.4797L1083.43 77.6855L1086.14 81.8914C1090.23 79.2577 1093.66 75.9608 1096.38 72.0123L1092.26 69.1797ZM1083.43 77.6855L1080.74 73.4714C1077.65 75.4462 1074.19 77.0152 1070.33 78.1611L1071.75 82.9541L1073.18 87.7471C1077.87 86.354 1082.19 84.4106 1086.12 81.8997L1083.43 77.6855ZM1071.75 82.9541L1070.04 78.2551L1067.25 79.2708L1068.96 83.9697L1070.67 88.6687L1073.46 87.6531L1071.75 82.9541ZM1068.96 83.9697V78.9697H1037.29V83.9697V88.9697H1068.96V83.9697ZM1037.29 83.9697L1042.23 84.7229L1043.24 78.0579L1038.3 77.3047L1033.36 76.5515L1032.34 83.2165L1037.29 83.9697ZM1038.3 77.3047L1038.29 82.3047L1063.87 82.3681L1063.88 77.3682L1063.89 72.3682L1038.31 72.3047L1038.3 77.3047ZM1063.88 77.3682L1063.93 82.3679C1068.71 82.3186 1073.25 81.3277 1077.48 79.3641L1075.37 74.8291L1073.27 70.2941C1070.39 71.6313 1067.26 72.3331 1063.83 72.3684L1063.88 77.3682ZM1075.37 74.8291L1077.48 79.3641C1081.72 77.3955 1085.32 74.592 1088.22 70.9768L1084.32 67.8467L1080.42 64.7165C1078.5 67.1104 1076.14 68.9619 1073.27 70.2941L1075.37 74.8291ZM1084.32 67.8467L1088.24 70.9502C1091.23 67.1735 1093.09 62.7425 1093.89 57.7899L1088.96 56.9922L1084.02 56.1945C1083.47 59.6208 1082.24 62.4261 1080.4 64.7432L1084.32 67.8467ZM1088.96 56.9922L1093.9 57.767C1094.68 52.7479 1094.3 47.9874 1092.22 43.8381L1087.75 46.0742L1083.28 48.3103C1084.16 50.0855 1084.58 52.6036 1084.02 56.2173L1088.96 56.9922ZM1087.75 46.0742L1092.25 43.8897C1090.31 39.8921 1087.23 36.8546 1083.22 34.8224L1080.96 39.2822L1078.7 43.7421C1080.87 44.8414 1082.32 46.3319 1083.25 48.2587L1087.75 46.0742ZM1080.96 39.2822L1083.24 34.8351C1079.4 32.8596 1075.05 31.9049 1070.33 31.8077L1070.23 36.8066L1070.13 41.8056C1073.62 41.8776 1076.42 42.5733 1078.67 43.7294L1080.96 39.2822ZM1070.23 36.8066V31.8066H1048.2V36.8066V41.8066H1070.23V36.8066ZM1048.2 36.8066L1043.28 35.9527L1028.42 121.646L1033.35 122.5L1038.28 123.354L1053.13 37.6606L1048.2 36.8066ZM1033.35 122.5V117.5H1025.73V122.5V127.5H1033.35V122.5ZM1025.73 122.5L1030.66 123.353L1046.66 30.9308L1041.73 30.0781L1036.8 29.2254L1020.81 121.647L1025.73 122.5ZM1081.27 122.5L1085.93 120.683L1069.81 79.3593L1065.15 81.1768L1060.49 82.9942L1076.62 124.317L1081.27 122.5ZM1065.15 81.1768L1065.23 86.1761L1072.98 86.0491L1072.9 81.0498L1072.81 76.0505L1065.07 76.1774L1065.15 81.1768ZM1072.9 81.0498L1068.26 82.9342L1084.77 123.496L1089.4 121.611L1094.03 119.727L1077.53 79.1654L1072.9 81.0498ZM1089.4 121.611L1084.41 121.255L1084.35 122.144L1089.34 122.5L1094.32 122.856L1094.39 121.968L1089.4 121.611ZM1089.34 122.5V117.5H1081.27V122.5V127.5H1089.34V122.5Z" fill="#6155F5" mask="url(#path-11-outside-1_2608_38)"/>
<mask id="path-13-outside-2_2608_38" maskUnits="userSpaceOnUse" x="170" y="26.5" width="451" height="106" fill="black">
<rect fill="white" x="170" y="26.5" width="451" height="106"/>
<path d="M225.653 100.935C225.653 99.4958 225.442 98.2051 225.019 97.0625C224.595 95.8776 223.812 94.7773 222.67 93.7617C221.527 92.7461 219.877 91.7305 217.719 90.7148C215.603 89.6569 212.81 88.5566 209.34 87.4141C205.277 86.0599 201.363 84.5365 197.597 82.8438C193.83 81.1087 190.466 79.0986 187.504 76.8135C184.542 74.486 182.193 71.7777 180.458 68.6885C178.723 65.557 177.855 61.9176 177.855 57.7705C177.855 53.7926 178.744 50.2168 180.521 47.043C182.299 43.8268 184.774 41.0973 187.948 38.8545C191.164 36.5693 194.931 34.8343 199.247 33.6494C203.563 32.4222 208.282 31.8086 213.402 31.8086C220.173 31.8086 226.14 32.9935 231.303 35.3633C236.508 37.6908 240.57 41.0127 243.49 45.3291C246.452 49.6032 247.934 54.6602 247.934 60.5H225.78C225.78 58.1725 225.294 56.1201 224.32 54.3428C223.389 52.5654 221.972 51.1689 220.067 50.1533C218.163 49.1377 215.772 48.6299 212.895 48.6299C210.102 48.6299 207.753 49.0531 205.849 49.8994C203.944 50.7458 202.506 51.8883 201.532 53.3271C200.559 54.7236 200.072 56.2682 200.072 57.9609C200.072 59.3574 200.453 60.627 201.215 61.7695C202.019 62.8698 203.14 63.9066 204.579 64.8799C206.06 65.8532 207.838 66.7842 209.911 67.6729C212.027 68.5615 214.397 69.429 217.021 70.2754C221.929 71.8411 226.288 73.5973 230.097 75.5439C233.948 77.4482 237.185 79.6276 239.809 82.082C242.475 84.4941 244.485 87.2448 245.839 90.334C247.235 93.4232 247.934 96.9144 247.934 100.808C247.934 104.955 247.13 108.636 245.521 111.853C243.913 115.069 241.607 117.798 238.603 120.041C235.598 122.242 232.001 123.913 227.812 125.056C223.622 126.198 218.946 126.77 213.783 126.77C209.044 126.77 204.368 126.177 199.755 124.992C195.185 123.765 191.037 121.903 187.313 119.406C183.59 116.867 180.606 113.63 178.363 109.694C176.163 105.716 175.062 100.998 175.062 95.5391H197.406C197.406 98.2474 197.766 100.533 198.485 102.395C199.205 104.257 200.263 105.759 201.659 106.901C203.056 108.002 204.77 108.806 206.801 109.313C208.832 109.779 211.16 110.012 213.783 110.012C216.618 110.012 218.904 109.61 220.639 108.806C222.374 107.959 223.643 106.859 224.447 105.505C225.251 104.108 225.653 102.585 225.653 100.935ZM310.674 33.0781V125.5H288.394V33.0781H310.674ZM338.477 33.0781V50.2803H261.226V33.0781H338.477ZM430.86 77.4482V81.1934C430.86 88.2604 429.866 94.6081 427.877 100.236C425.93 105.822 423.159 110.604 419.562 114.582C415.965 118.518 411.712 121.543 406.803 123.659C401.894 125.733 396.477 126.77 390.553 126.77C384.586 126.77 379.127 125.733 374.176 123.659C369.267 121.543 364.993 118.518 361.354 114.582C357.757 110.604 354.964 105.822 352.975 100.236C351.028 94.6081 350.055 88.2604 350.055 81.1934V77.4482C350.055 70.3812 351.028 64.0335 352.975 58.4053C354.964 52.777 357.735 47.9951 361.29 44.0596C364.887 40.0817 369.14 37.056 374.049 34.9824C379 32.8665 384.459 31.8086 390.426 31.8086C396.35 31.8086 401.767 32.8665 406.676 34.9824C411.627 37.056 415.901 40.0817 419.498 44.0596C423.095 47.9951 425.888 52.777 427.877 58.4053C429.866 64.0335 430.86 70.3812 430.86 77.4482ZM408.263 81.1934V77.3213C408.263 72.751 407.861 68.7308 407.057 65.2607C406.295 61.7484 405.152 58.8073 403.629 56.4375C402.105 54.0677 400.222 52.2904 397.979 51.1055C395.779 49.8783 393.261 49.2646 390.426 49.2646C387.464 49.2646 384.882 49.8783 382.682 51.1055C380.481 52.2904 378.64 54.0677 377.159 56.4375C375.678 58.8073 374.557 61.7484 373.795 65.2607C373.076 68.7308 372.716 72.751 372.716 77.3213V81.1934C372.716 85.7214 373.076 89.7415 373.795 93.2539C374.557 96.724 375.678 99.665 377.159 102.077C378.683 104.489 380.545 106.309 382.745 107.536C384.988 108.763 387.59 109.377 390.553 109.377C393.388 109.377 395.906 108.763 398.106 107.536C400.307 106.309 402.148 104.489 403.629 102.077C405.152 99.665 406.295 96.724 407.057 93.2539C407.861 89.7415 408.263 85.7214 408.263 81.1934ZM448.913 33.0781H485.285C492.395 33.0781 498.573 34.1361 503.82 36.252C509.068 38.3678 513.109 41.4993 515.944 45.6465C518.822 49.7936 520.261 54.9141 520.261 61.0078C520.261 66.2975 519.436 70.7197 517.785 74.2744C516.135 77.8291 513.828 80.7702 510.866 83.0977C507.946 85.3828 504.54 87.266 500.646 88.7471L493.347 92.873H462.814L462.688 75.6709H485.285C488.12 75.6709 490.469 75.1631 492.331 74.1475C494.193 73.1318 495.59 71.693 496.521 69.8311C497.494 67.9268 497.98 65.6628 497.98 63.0391C497.98 60.373 497.494 58.0879 496.521 56.1836C495.547 54.2793 494.108 52.8193 492.204 51.8037C490.342 50.7881 488.036 50.2803 485.285 50.2803H471.193V125.5H448.913V33.0781ZM499.504 125.5L479.064 84.6211L502.678 84.4941L523.371 124.548V125.5H499.504ZM553.929 33.0781L570.94 73.1953L588.016 33.0781H612.01L582.303 92.3018V125.5H559.642V92.3018L529.871 33.0781H553.929Z"/>
</mask>
<path d="M225.653 100.935C225.653 99.4958 225.442 98.2051 225.019 97.0625C224.595 95.8776 223.812 94.7773 222.67 93.7617C221.527 92.7461 219.877 91.7305 217.719 90.7148C215.603 89.6569 212.81 88.5566 209.34 87.4141C205.277 86.0599 201.363 84.5365 197.597 82.8438C193.83 81.1087 190.466 79.0986 187.504 76.8135C184.542 74.486 182.193 71.7777 180.458 68.6885C178.723 65.557 177.855 61.9176 177.855 57.7705C177.855 53.7926 178.744 50.2168 180.521 47.043C182.299 43.8268 184.774 41.0973 187.948 38.8545C191.164 36.5693 194.931 34.8343 199.247 33.6494C203.563 32.4222 208.282 31.8086 213.402 31.8086C220.173 31.8086 226.14 32.9935 231.303 35.3633C236.508 37.6908 240.57 41.0127 243.49 45.3291C246.452 49.6032 247.934 54.6602 247.934 60.5H225.78C225.78 58.1725 225.294 56.1201 224.32 54.3428C223.389 52.5654 221.972 51.1689 220.067 50.1533C218.163 49.1377 215.772 48.6299 212.895 48.6299C210.102 48.6299 207.753 49.0531 205.849 49.8994C203.944 50.7458 202.506 51.8883 201.532 53.3271C200.559 54.7236 200.072 56.2682 200.072 57.9609C200.072 59.3574 200.453 60.627 201.215 61.7695C202.019 62.8698 203.14 63.9066 204.579 64.8799C206.06 65.8532 207.838 66.7842 209.911 67.6729C212.027 68.5615 214.397 69.429 217.021 70.2754C221.929 71.8411 226.288 73.5973 230.097 75.5439C233.948 77.4482 237.185 79.6276 239.809 82.082C242.475 84.4941 244.485 87.2448 245.839 90.334C247.235 93.4232 247.934 96.9144 247.934 100.808C247.934 104.955 247.13 108.636 245.521 111.853C243.913 115.069 241.607 117.798 238.603 120.041C235.598 122.242 232.001 123.913 227.812 125.056C223.622 126.198 218.946 126.77 213.783 126.77C209.044 126.77 204.368 126.177 199.755 124.992C195.185 123.765 191.037 121.903 187.313 119.406C183.59 116.867 180.606 113.63 178.363 109.694C176.163 105.716 175.062 100.998 175.062 95.5391H197.406C197.406 98.2474 197.766 100.533 198.485 102.395C199.205 104.257 200.263 105.759 201.659 106.901C203.056 108.002 204.77 108.806 206.801 109.313C208.832 109.779 211.16 110.012 213.783 110.012C216.618 110.012 218.904 109.61 220.639 108.806C222.374 107.959 223.643 106.859 224.447 105.505C225.251 104.108 225.653 102.585 225.653 100.935ZM310.674 33.0781V125.5H288.394V33.0781H310.674ZM338.477 33.0781V50.2803H261.226V33.0781H338.477ZM430.86 77.4482V81.1934C430.86 88.2604 429.866 94.6081 427.877 100.236C425.93 105.822 423.159 110.604 419.562 114.582C415.965 118.518 411.712 121.543 406.803 123.659C401.894 125.733 396.477 126.77 390.553 126.77C384.586 126.77 379.127 125.733 374.176 123.659C369.267 121.543 364.993 118.518 361.354 114.582C357.757 110.604 354.964 105.822 352.975 100.236C351.028 94.6081 350.055 88.2604 350.055 81.1934V77.4482C350.055 70.3812 351.028 64.0335 352.975 58.4053C354.964 52.777 357.735 47.9951 361.29 44.0596C364.887 40.0817 369.14 37.056 374.049 34.9824C379 32.8665 384.459 31.8086 390.426 31.8086C396.35 31.8086 401.767 32.8665 406.676 34.9824C411.627 37.056 415.901 40.0817 419.498 44.0596C423.095 47.9951 425.888 52.777 427.877 58.4053C429.866 64.0335 430.86 70.3812 430.86 77.4482ZM408.263 81.1934V77.3213C408.263 72.751 407.861 68.7308 407.057 65.2607C406.295 61.7484 405.152 58.8073 403.629 56.4375C402.105 54.0677 400.222 52.2904 397.979 51.1055C395.779 49.8783 393.261 49.2646 390.426 49.2646C387.464 49.2646 384.882 49.8783 382.682 51.1055C380.481 52.2904 378.64 54.0677 377.159 56.4375C375.678 58.8073 374.557 61.7484 373.795 65.2607C373.076 68.7308 372.716 72.751 372.716 77.3213V81.1934C372.716 85.7214 373.076 89.7415 373.795 93.2539C374.557 96.724 375.678 99.665 377.159 102.077C378.683 104.489 380.545 106.309 382.745 107.536C384.988 108.763 387.59 109.377 390.553 109.377C393.388 109.377 395.906 108.763 398.106 107.536C400.307 106.309 402.148 104.489 403.629 102.077C405.152 99.665 406.295 96.724 407.057 93.2539C407.861 89.7415 408.263 85.7214 408.263 81.1934ZM448.913 33.0781H485.285C492.395 33.0781 498.573 34.1361 503.82 36.252C509.068 38.3678 513.109 41.4993 515.944 45.6465C518.822 49.7936 520.261 54.9141 520.261 61.0078C520.261 66.2975 519.436 70.7197 517.785 74.2744C516.135 77.8291 513.828 80.7702 510.866 83.0977C507.946 85.3828 504.54 87.266 500.646 88.7471L493.347 92.873H462.814L462.688 75.6709H485.285C488.12 75.6709 490.469 75.1631 492.331 74.1475C494.193 73.1318 495.59 71.693 496.521 69.8311C497.494 67.9268 497.98 65.6628 497.98 63.0391C497.98 60.373 497.494 58.0879 496.521 56.1836C495.547 54.2793 494.108 52.8193 492.204 51.8037C490.342 50.7881 488.036 50.2803 485.285 50.2803H471.193V125.5H448.913V33.0781ZM499.504 125.5L479.064 84.6211L502.678 84.4941L523.371 124.548V125.5H499.504ZM553.929 33.0781L570.94 73.1953L588.016 33.0781H612.01L582.303 92.3018V125.5H559.642V92.3018L529.871 33.0781H553.929Z" fill="#6155F5"/>
<path d="M225.019 97.0625L220.31 98.7442L220.32 98.7717L220.33 98.7991L225.019 97.0625ZM217.719 90.7148L215.483 95.187L215.536 95.2136L215.59 95.2389L217.719 90.7148ZM209.34 87.4141L207.759 92.1575L207.767 92.1604L207.776 92.1632L209.34 87.4141ZM197.597 82.8438L195.505 87.385L195.526 87.3948L195.547 87.4043L197.597 82.8438ZM187.504 76.8135L184.415 80.7451L184.432 80.7588L184.45 80.7724L187.504 76.8135ZM180.458 68.6885L176.084 71.1117L176.091 71.1243L176.099 71.1369L180.458 68.6885ZM180.521 47.043L184.884 49.486L184.891 49.4737L184.898 49.4614L180.521 47.043ZM187.948 38.8545L190.834 42.9378L190.844 42.9304L187.948 38.8545ZM199.247 33.6494L200.571 38.471L200.593 38.465L200.614 38.4588L199.247 33.6494ZM231.303 35.3633L229.217 39.9074L229.239 39.9177L229.262 39.9277L231.303 35.3633ZM243.49 45.3291L239.349 48.1306L239.365 48.154L239.381 48.1773L243.49 45.3291ZM247.934 60.5V65.5H252.934V60.5H247.934ZM225.78 60.5H220.78V65.5H225.78V60.5ZM224.32 54.3428L219.891 56.6628L219.913 56.7038L219.935 56.7443L224.32 54.3428ZM201.532 53.3271L205.634 56.1861L205.654 56.1575L205.674 56.1287L201.532 53.3271ZM201.215 61.7695L197.055 64.543L197.114 64.6327L197.178 64.7196L201.215 61.7695ZM204.579 64.8799L201.778 69.0213L201.805 69.04L201.833 69.0584L204.579 64.8799ZM209.911 67.6729L207.942 72.2686L207.958 72.2757L207.975 72.2828L209.911 67.6729ZM217.021 70.2754L215.485 75.0339L215.493 75.0364L215.501 75.0389L217.021 70.2754ZM230.097 75.5439L227.821 79.9961L227.851 80.0112L227.88 80.0259L230.097 75.5439ZM239.809 82.082L236.393 85.7334L236.423 85.7618L236.454 85.7897L239.809 82.082ZM245.839 90.334L241.26 92.3414L241.271 92.3675L241.283 92.3936L245.839 90.334ZM238.603 120.041L241.557 124.075L241.575 124.061L241.594 124.048L238.603 120.041ZM199.755 124.992L198.458 129.821L198.485 129.828L198.511 129.835L199.755 124.992ZM187.313 119.406L184.497 123.537L184.513 123.548L184.529 123.559L187.313 119.406ZM178.363 109.694L173.988 112.115L174.003 112.142L174.019 112.17L178.363 109.694ZM175.062 95.5391V90.5391H170.062V95.5391H175.062ZM197.406 95.5391H202.406V90.5391H197.406V95.5391ZM201.659 106.901L198.493 110.771L198.529 110.8L198.565 110.829L201.659 106.901ZM206.801 109.313L205.588 114.164L205.636 114.176L205.684 114.187L206.801 109.313ZM220.639 108.806L222.741 113.342L222.786 113.321L222.831 113.3L220.639 108.806ZM224.447 105.505L228.747 108.058L228.764 108.029L228.78 108L224.447 105.505ZM225.653 100.935H230.653C230.653 99.0079 230.37 97.1148 229.707 95.3259L225.019 97.0625L220.33 98.7991C220.514 99.2953 220.653 99.9837 220.653 100.935H225.653ZM225.019 97.0625L229.727 95.3808C228.967 93.2521 227.628 91.479 225.992 90.0247L222.67 93.7617L219.348 97.4988C219.997 98.0756 220.224 98.5031 220.31 98.7442L225.019 97.0625ZM222.67 93.7617L225.992 90.0247C224.35 88.5651 222.226 87.3098 219.848 86.1908L217.719 90.7148L215.59 95.2389C217.528 96.1512 218.705 96.9271 219.348 97.4988L222.67 93.7617ZM217.719 90.7148L219.955 86.2427C217.539 85.0346 214.495 83.8473 210.904 82.6649L209.34 87.4141L207.776 92.1632C211.125 93.266 213.667 94.2792 215.483 95.187L217.719 90.7148ZM209.34 87.4141L210.921 82.6706C207.012 81.3676 203.254 79.9046 199.646 78.2832L197.597 82.8438L195.547 87.4043C199.472 89.1683 203.543 90.7522 207.759 92.1575L209.34 87.4141ZM197.597 82.8438L199.689 78.3025C196.228 76.708 193.192 74.8868 190.558 72.8546L187.504 76.8135L184.45 80.7724C187.74 83.3105 191.433 85.5094 195.505 87.385L197.597 82.8438ZM187.504 76.8135L190.593 72.8819C188.114 70.9345 186.211 68.7205 184.817 66.24L180.458 68.6885L176.099 71.1369C178.175 74.8348 180.969 78.0376 184.415 80.7451L187.504 76.8135ZM180.458 68.6885L184.832 66.2653C183.568 63.9854 182.855 61.2053 182.855 57.7705H177.855H172.855C172.855 62.63 173.878 67.1285 176.084 71.1117L180.458 68.6885ZM177.855 57.7705H182.855C182.855 54.566 183.563 51.8449 184.884 49.486L180.521 47.043L176.159 44.6C173.925 48.5887 172.855 53.0193 172.855 57.7705H177.855ZM180.521 47.043L184.898 49.4614C186.289 46.9435 188.24 44.771 190.834 42.9378L187.948 38.8545L185.063 34.7712C181.309 37.4237 178.308 40.7102 176.145 44.6245L180.521 47.043ZM187.948 38.8545L190.844 42.9304C193.524 41.0261 196.743 39.5218 200.571 38.471L199.247 33.6494L197.923 28.8278C193.118 30.1468 188.804 32.1126 185.052 34.7786L187.948 38.8545ZM199.247 33.6494L200.614 38.4588C204.429 37.3744 208.68 36.8086 213.402 36.8086V31.8086V26.8086C207.883 26.8086 202.698 27.47 197.88 28.84L199.247 33.6494ZM213.402 31.8086V36.8086C219.589 36.8086 224.822 37.8901 229.217 39.9074L231.303 35.3633L233.389 30.8191C227.458 28.0969 220.757 26.8086 213.402 26.8086V31.8086ZM231.303 35.3633L229.262 39.9277C233.699 41.9119 237 44.6581 239.349 48.1306L243.49 45.3291L247.632 42.5276C244.141 37.3673 239.317 33.4696 233.344 30.7988L231.303 35.3633ZM243.49 45.3291L239.381 48.1773C241.693 51.5138 242.934 55.5479 242.934 60.5H247.934H252.934C252.934 53.7724 251.212 47.6926 247.6 42.4809L243.49 45.3291ZM247.934 60.5V55.5H225.78V60.5V65.5H247.934V60.5ZM225.78 60.5H230.78C230.78 57.4591 230.139 54.5579 228.706 51.9412L224.32 54.3428L219.935 56.7443C220.448 57.6823 220.78 58.886 220.78 60.5H225.78ZM224.32 54.3428L228.749 52.0227C227.317 49.2872 225.141 47.1924 222.42 45.7416L220.067 50.1533L217.714 54.5651C218.803 55.1455 219.462 55.8437 219.891 56.6628L224.32 54.3428ZM220.067 50.1533L222.42 45.7416C219.591 44.2325 216.33 43.6299 212.895 43.6299V48.6299V53.6299C215.214 53.6299 216.735 54.0429 217.714 54.5651L220.067 50.1533ZM212.895 48.6299V43.6299C209.627 43.6299 206.54 44.1207 203.818 45.3304L205.849 49.8994L207.879 54.4685C208.966 53.9854 210.576 53.6299 212.895 53.6299V48.6299ZM205.849 49.8994L203.818 45.3304C201.231 46.4803 198.985 48.1692 197.391 50.5256L201.532 53.3271L205.674 56.1287C206.026 55.6074 206.658 55.0113 207.879 54.4685L205.849 49.8994ZM201.532 53.3271L197.43 50.4682C195.876 52.6984 195.072 55.2397 195.072 57.9609H200.072H205.072C205.072 57.2967 205.242 56.7489 205.634 56.1861L201.532 53.3271ZM200.072 57.9609H195.072C195.072 60.3267 195.736 62.5644 197.055 64.543L201.215 61.7695L205.375 58.996C205.171 58.6895 205.072 58.3881 205.072 57.9609H200.072ZM201.215 61.7695L197.178 64.7196C198.401 66.3932 199.986 67.8096 201.778 69.0213L204.579 64.8799L207.381 60.7385C206.294 60.0035 205.637 59.3464 205.252 58.8194L201.215 61.7695ZM204.579 64.8799L201.833 69.0584C203.616 70.2301 205.667 71.2936 207.942 72.2686L209.911 67.6729L211.881 63.0771C210.008 62.2747 208.504 61.4763 207.325 60.7014L204.579 64.8799ZM209.911 67.6729L207.975 72.2828C210.245 73.2363 212.752 74.1522 215.485 75.0339L217.021 70.2754L218.556 65.5168C216.042 64.7059 213.809 63.8867 211.847 63.0629L209.911 67.6729ZM217.021 70.2754L215.501 75.0389C220.201 76.5379 224.299 78.1959 227.821 79.9961L230.097 75.5439L232.372 71.0918C228.277 68.9988 223.658 67.1444 218.54 65.5118L217.021 70.2754ZM230.097 75.5439L227.88 80.0259C231.376 81.7545 234.188 83.6708 236.393 85.7334L239.809 82.082L243.224 78.4307C240.182 75.5844 236.519 73.142 232.313 71.062L230.097 75.5439ZM239.809 82.082L236.454 85.7897C238.631 87.7597 240.207 89.9411 241.26 92.3414L245.839 90.334L250.418 88.3266C248.762 84.5485 246.318 81.2286 243.163 78.3744L239.809 82.082ZM245.839 90.334L241.283 92.3936C242.346 94.7463 242.934 97.5196 242.934 100.808H247.934H252.934C252.934 96.3091 252.124 92.1001 250.395 88.2744L245.839 90.334ZM247.934 100.808H242.934C242.934 104.298 242.261 107.194 241.049 109.616L245.521 111.853L249.994 114.089C251.998 110.079 252.934 105.612 252.934 100.808H247.934ZM245.521 111.853L241.049 109.616C239.805 112.105 238.019 114.237 235.612 116.034L238.603 120.041L241.594 124.048C245.196 121.359 248.022 118.033 249.994 114.089L245.521 111.853ZM238.603 120.041L235.648 116.007C233.212 117.792 230.192 119.224 226.496 120.232L227.812 125.056L229.127 129.879C233.81 128.602 237.984 126.691 241.557 124.075L238.603 120.041ZM227.812 125.056L226.496 120.232C222.807 121.238 218.583 121.77 213.783 121.77V126.77V131.77C219.309 131.77 224.437 131.159 229.127 129.879L227.812 125.056ZM213.783 126.77V121.77C209.465 121.77 205.207 121.23 200.999 120.149L199.755 124.992L198.511 129.835C203.528 131.124 208.622 131.77 213.783 131.77V126.77ZM199.755 124.992L201.052 120.163C196.981 119.07 193.342 117.428 190.098 115.253L187.313 119.406L184.529 123.559C188.733 126.378 193.388 128.46 198.458 129.821L199.755 124.992ZM187.313 119.406L190.13 115.275C187.038 113.167 184.576 110.497 182.707 107.219L178.363 109.694L174.019 112.17C176.637 116.763 180.141 120.568 184.497 123.537L187.313 119.406ZM178.363 109.694L182.738 107.274C181.023 104.172 180.062 100.321 180.062 95.5391H175.062H170.062C170.062 101.675 171.303 107.26 173.988 112.115L178.363 109.694ZM175.062 95.5391V100.539H197.406V95.5391V90.5391H175.062V95.5391ZM197.406 95.5391H192.406C192.406 98.6578 192.816 101.595 193.821 104.197L198.485 102.395L203.149 100.593C202.716 99.4704 202.406 97.837 202.406 95.5391H197.406ZM198.485 102.395L193.821 104.197C194.819 106.778 196.357 109.024 198.493 110.771L201.659 106.901L204.825 103.032C204.168 102.494 203.591 101.735 203.149 100.593L198.485 102.395ZM201.659 106.901L198.565 110.829C200.606 112.437 202.992 113.515 205.588 114.164L206.801 109.313L208.013 104.463C206.547 104.096 205.505 103.566 204.754 102.974L201.659 106.901ZM206.801 109.313L205.684 114.187C208.161 114.755 210.876 115.012 213.783 115.012V110.012V105.012C211.443 105.012 209.503 104.803 207.918 104.44L206.801 109.313ZM213.783 110.012V115.012C217.024 115.012 220.108 114.563 222.741 113.342L220.639 108.806L218.536 104.269C217.7 104.657 216.213 105.012 213.783 105.012V110.012ZM220.639 108.806L222.831 113.3C225.243 112.123 227.342 110.423 228.747 108.058L224.447 105.505L220.148 102.952C219.944 103.295 219.504 103.796 218.447 104.312L220.639 108.806ZM224.447 105.505L228.78 108C230.032 105.825 230.653 103.438 230.653 100.935H225.653H220.653C220.653 101.731 220.47 102.391 220.114 103.01L224.447 105.505ZM310.674 33.0781H315.674V28.0781H310.674V33.0781ZM310.674 125.5V130.5H315.674V125.5H310.674ZM288.394 125.5H283.394V130.5H288.394V125.5ZM288.394 33.0781V28.0781H283.394V33.0781H288.394ZM338.477 33.0781H343.477V28.0781H338.477V33.0781ZM338.477 50.2803V55.2803H343.477V50.2803H338.477ZM261.226 50.2803H256.226V55.2803H261.226V50.2803ZM261.226 33.0781V28.0781H256.226V33.0781H261.226ZM310.674 33.0781H305.674V125.5H310.674H315.674V33.0781H310.674ZM310.674 125.5V120.5H288.394V125.5V130.5H310.674V125.5ZM288.394 125.5H293.394V33.0781H288.394H283.394V125.5H288.394ZM288.394 33.0781V38.0781H310.674V33.0781V28.0781H288.394V33.0781ZM338.477 33.0781H333.477V50.2803H338.477H343.477V33.0781H338.477ZM338.477 50.2803V45.2803H261.226V50.2803V55.2803H338.477V50.2803ZM261.226 50.2803H266.226V33.0781H261.226H256.226V50.2803H261.226ZM261.226 33.0781V38.0781H338.477V33.0781V28.0781H261.226V33.0781ZM427.877 100.236L423.163 98.5704L423.159 98.5807L423.155 98.591L427.877 100.236ZM419.562 114.582L423.252 117.955L423.261 117.945L423.27 117.936L419.562 114.582ZM406.803 123.659L408.748 128.265L408.765 128.258L408.782 128.251L406.803 123.659ZM374.176 123.659L372.197 128.251L372.22 128.261L372.244 128.271L374.176 123.659ZM361.354 114.582L357.645 117.936L357.664 117.956L357.683 117.977L361.354 114.582ZM352.975 100.236L348.249 101.871L348.257 101.892L348.264 101.913L352.975 100.236ZM352.975 58.4053L348.26 56.7393L348.255 56.7551L348.249 56.7709L352.975 58.4053ZM361.29 44.0596L357.581 40.706L357.58 40.7081L361.29 44.0596ZM374.049 34.9824L375.994 39.5884L376.004 39.5843L376.014 39.5802L374.049 34.9824ZM406.676 34.9824L404.697 39.574L404.72 39.5843L404.744 39.5943L406.676 34.9824ZM419.498 44.0596L415.789 47.4131L415.798 47.423L415.807 47.4328L419.498 44.0596ZM427.877 58.4053L423.163 60.0712L427.877 58.4053ZM407.057 65.2607L402.17 66.3204L402.178 66.355L402.186 66.3894L407.057 65.2607ZM397.979 51.1055L395.544 55.4723L395.594 55.4999L395.644 55.5264L397.979 51.1055ZM382.682 51.1055L385.052 55.5078L385.085 55.4903L385.117 55.4723L382.682 51.1055ZM377.159 56.4375L372.919 53.7875L377.159 56.4375ZM373.795 65.2607L368.909 64.201L368.904 64.2234L368.899 64.2457L373.795 65.2607ZM373.795 93.2539L368.897 94.2572L368.904 94.2916L368.911 94.3259L373.795 93.2539ZM377.159 102.077L372.898 104.693L372.915 104.72L372.932 104.747L377.159 102.077ZM382.745 107.536L380.31 111.903L380.327 111.913L380.345 111.922L382.745 107.536ZM403.629 102.077L399.401 99.4072L399.385 99.4339L399.368 99.4608L403.629 102.077ZM407.057 93.2539L402.183 92.1382L402.178 92.16L402.173 92.1819L407.057 93.2539ZM430.86 77.4482H425.86V81.1934H430.86H435.86V77.4482H430.86ZM430.86 81.1934H425.86C425.86 87.7947 424.931 93.5654 423.163 98.5704L427.877 100.236L432.591 101.902C434.8 95.6507 435.86 88.7261 435.86 81.1934H430.86ZM427.877 100.236L423.155 98.591C421.406 103.611 418.957 107.795 415.853 111.228L419.562 114.582L423.27 117.936C427.36 113.413 430.455 108.034 432.598 101.882L427.877 100.236ZM419.562 114.582L415.871 111.209C412.753 114.62 409.084 117.231 404.824 119.068L406.803 123.659L408.782 128.251C414.339 125.855 419.176 122.415 423.252 117.955L419.562 114.582ZM406.803 123.659L404.857 119.053C400.629 120.839 395.884 121.77 390.553 121.77V126.77V131.77C397.071 131.77 403.158 130.626 408.748 128.265L406.803 123.659ZM390.553 126.77V121.77C385.175 121.77 380.382 120.838 376.107 119.047L374.176 123.659L372.244 128.271C377.872 130.628 383.997 131.77 390.553 131.77V126.77ZM374.176 123.659L376.155 119.068C371.889 117.229 368.191 114.612 365.025 111.187L361.354 114.582L357.683 117.977C361.795 122.424 366.645 125.858 372.197 128.251L374.176 123.659ZM361.354 114.582L365.062 111.228C361.95 107.787 359.477 103.591 357.685 98.5592L352.975 100.236L348.264 101.913C350.45 108.053 353.563 113.421 357.645 117.936L361.354 114.582ZM352.975 100.236L357.7 98.602C355.966 93.5872 355.055 87.8053 355.055 81.1934H350.055H345.055C345.055 88.7156 346.09 95.629 348.249 101.871L352.975 100.236ZM350.055 81.1934H355.055V77.4482H350.055H345.055V81.1934H350.055ZM350.055 77.4482H355.055C355.055 70.8363 355.966 65.0544 357.7 60.0396L352.975 58.4053L348.249 56.7709C346.09 63.0126 345.055 69.926 345.055 77.4482H350.055ZM352.975 58.4053L357.689 60.0712C359.485 54.9876 361.941 50.7986 365.001 47.411L361.29 44.0596L357.58 40.7081C353.53 45.1916 350.442 50.5665 348.26 56.7393L352.975 58.4053ZM361.29 44.0596L364.999 47.4131C368.11 43.9727 371.762 41.3762 375.994 39.5884L374.049 34.9824L372.103 30.3765C366.518 32.7358 361.664 36.1907 357.581 40.706L361.29 44.0596ZM374.049 34.9824L376.014 39.5802C380.28 37.7571 385.061 36.8086 390.426 36.8086V31.8086V26.8086C383.857 26.8086 377.72 27.976 372.084 30.3847L374.049 34.9824ZM390.426 31.8086V36.8086C395.744 36.8086 400.477 37.7554 404.697 39.574L406.676 34.9824L408.655 30.3908C403.056 27.9777 396.957 26.8086 390.426 26.8086V31.8086ZM406.676 34.9824L404.744 39.5943C409.018 41.3843 412.686 43.9807 415.789 47.4131L419.498 44.0596L423.207 40.706C419.116 36.1827 414.235 32.7276 408.607 30.3705L406.676 34.9824ZM419.498 44.0596L415.807 47.4328C418.901 50.8177 421.37 54.9993 423.163 60.0712L427.877 58.4053L432.591 56.7393C430.406 50.5547 427.289 45.1725 423.189 40.6863L419.498 44.0596ZM427.877 58.4053L423.163 60.0712C424.931 65.0762 425.86 70.8469 425.86 77.4482H430.86H435.86C435.86 69.9155 434.8 62.9909 432.591 56.7393L427.877 58.4053ZM408.263 81.1934H413.263V77.3213H408.263H403.263V81.1934H408.263ZM408.263 77.3213H413.263C413.263 72.4721 412.838 68.0592 411.928 64.1321L407.057 65.2607L402.186 66.3894C402.884 69.4024 403.263 73.0299 403.263 77.3213H408.263ZM407.057 65.2607L411.943 64.201C411.088 60.2582 409.757 56.7237 407.835 53.7337L403.629 56.4375L399.423 59.1413C400.548 60.8909 401.502 63.2386 402.17 66.3204L407.057 65.2607ZM403.629 56.4375L407.835 53.7337C405.899 50.722 403.4 48.3145 400.315 46.6845L397.979 51.1055L395.644 55.5264C397.044 56.2663 398.312 57.4134 399.423 59.1413L403.629 56.4375ZM397.979 51.1055L400.415 46.7386C397.38 45.0463 394.005 44.2646 390.426 44.2646V49.2646V54.2646C392.517 54.2646 394.178 54.7102 395.544 55.4723L397.979 51.1055ZM390.426 49.2646V44.2646C386.761 44.2646 383.313 45.0286 380.246 46.7386L382.682 51.1055L385.117 55.4723C386.452 54.7279 388.166 54.2646 390.426 54.2646V49.2646ZM382.682 51.1055L380.311 46.7031C377.259 48.3468 374.805 50.77 372.919 53.7875L377.159 56.4375L381.399 59.0875C382.475 57.3654 383.704 56.2339 385.052 55.5078L382.682 51.1055ZM377.159 56.4375L372.919 53.7875C371.059 56.7634 369.759 60.2785 368.909 64.201L373.795 65.2607L378.681 66.3204C379.354 63.2183 380.297 60.8511 381.399 59.0875L377.159 56.4375ZM373.795 65.2607L368.899 64.2457C368.094 68.1294 367.716 72.5024 367.716 77.3213H372.716H377.716C377.716 72.9995 378.057 69.3321 378.691 66.2757L373.795 65.2607ZM372.716 77.3213H367.716V81.1934H372.716H377.716V77.3213H372.716ZM372.716 81.1934H367.716C367.716 85.9749 368.095 90.3418 368.897 94.2572L373.795 93.2539L378.693 92.2506C378.056 89.1412 377.716 85.4679 377.716 81.1934H372.716ZM373.795 93.2539L368.911 94.3259C369.764 98.2087 371.061 101.701 372.898 104.693L377.159 102.077L381.42 99.4608C380.295 97.6289 379.35 95.2392 378.679 92.1819L373.795 93.2539ZM377.159 102.077L372.932 104.747C374.842 107.771 377.288 110.217 380.31 111.903L382.745 107.536L385.18 103.169C383.802 102.4 382.524 101.208 381.387 99.4072L377.159 102.077ZM382.745 107.536L380.345 111.922C383.433 113.612 386.886 114.377 390.553 114.377V109.377V104.377C388.295 104.377 386.543 103.915 385.145 103.15L382.745 107.536ZM390.553 109.377V114.377C394.132 114.377 397.507 113.595 400.542 111.903L398.106 107.536L395.671 103.169C394.305 103.931 392.644 104.377 390.553 104.377V109.377ZM398.106 107.536L400.542 111.903C403.58 110.209 406.017 107.744 407.89 104.693L403.629 102.077L399.368 99.4608C398.279 101.234 397.034 102.409 395.671 103.169L398.106 107.536ZM403.629 102.077L407.856 104.747C409.755 101.741 411.084 98.2291 411.94 94.3259L407.057 93.2539L402.173 92.1819C401.506 95.2188 400.55 97.5892 399.401 99.4072L403.629 102.077ZM407.057 93.2539L411.931 94.3696C412.837 90.412 413.263 86.0057 413.263 81.1934H408.263H403.263C403.263 85.437 402.885 89.0711 402.183 92.1382L407.057 93.2539ZM448.913 33.0781V28.0781H443.913V33.0781H448.913ZM503.82 36.252L501.95 40.8892L503.82 36.252ZM515.944 45.6465L511.817 48.4684L511.827 48.4827L511.836 48.4969L515.944 45.6465ZM510.866 83.0977L513.948 87.0352L513.955 87.0292L510.866 83.0977ZM500.646 88.7471L498.869 84.0738L498.515 84.2082L498.186 84.3943L500.646 88.7471ZM493.347 92.873V97.873H494.662L495.807 97.2259L493.347 92.873ZM462.814 92.873L457.815 92.9099L457.851 97.873H462.814V92.873ZM462.688 75.6709V70.6709H457.65L457.688 75.7078L462.688 75.6709ZM496.521 69.8311L492.068 67.5555L492.058 67.5752L492.048 67.595L496.521 69.8311ZM492.204 51.8037L489.81 56.1932L489.83 56.2044L489.851 56.2155L492.204 51.8037ZM471.193 50.2803V45.2803H466.193V50.2803H471.193ZM471.193 125.5V130.5H476.193V125.5H471.193ZM448.913 125.5H443.913V130.5H448.913V125.5ZM499.504 125.5L495.032 127.736L496.414 130.5H499.504V125.5ZM479.064 84.6211L479.038 79.6212L470.996 79.6644L474.592 86.8572L479.064 84.6211ZM502.678 84.4941L507.12 82.1991L505.714 79.4777L502.651 79.4942L502.678 84.4941ZM523.371 124.548H528.371V123.333L527.813 122.253L523.371 124.548ZM523.371 125.5V130.5H528.371V125.5H523.371ZM448.913 33.0781V38.0781H485.285V33.0781V28.0781H448.913V33.0781ZM485.285 33.0781V38.0781C491.912 38.0781 497.428 39.0657 501.95 40.8892L503.82 36.252L505.69 31.6147C499.717 29.2064 492.877 28.0781 485.285 28.0781V33.0781ZM503.82 36.252L501.95 40.8892C506.402 42.6842 509.607 45.2362 511.817 48.4684L515.944 45.6465L520.072 42.8246C516.611 37.7625 511.733 34.0515 505.69 31.6147L503.82 36.252ZM515.944 45.6465L511.836 48.4969C514.022 51.6463 515.261 55.7181 515.261 61.0078H520.261H525.261C525.261 54.11 523.622 47.9409 520.052 42.7961L515.944 45.6465ZM520.261 61.0078H515.261C515.261 65.8112 514.507 69.4621 513.25 72.1689L517.785 74.2744L522.32 76.38C524.364 71.9773 525.261 66.7839 525.261 61.0078H520.261ZM517.785 74.2744L513.25 72.1689C511.917 75.0392 510.095 77.3448 507.777 79.1661L510.866 83.0977L513.955 87.0292C517.562 84.1956 520.352 80.619 522.32 76.38L517.785 74.2744ZM510.866 83.0977L507.785 79.1601C505.305 81.1005 502.35 82.7494 498.869 84.0738L500.646 88.7471L502.424 93.4203C506.73 91.7825 510.587 89.6651 513.948 87.0352L510.866 83.0977ZM500.646 88.7471L498.186 84.3943L490.886 88.5202L493.347 92.873L495.807 97.2259L503.107 93.0999L500.646 88.7471ZM493.347 92.873V87.873H462.814V92.873V97.873H493.347V92.873ZM462.814 92.873L467.814 92.8361L467.687 75.634L462.688 75.6709L457.688 75.7078L457.815 92.9099L462.814 92.873ZM462.688 75.6709V80.6709H485.285V75.6709V70.6709H462.688V75.6709ZM485.285 75.6709V80.6709C488.686 80.6709 491.923 80.0654 494.725 78.5369L492.331 74.1475L489.937 69.758C489.015 70.2607 487.555 70.6709 485.285 70.6709V75.6709ZM492.331 74.1475L494.725 78.5369C497.465 77.0423 499.596 74.8604 500.993 72.0671L496.521 69.8311L492.048 67.595C491.583 68.5257 490.921 69.2214 489.937 69.758L492.331 74.1475ZM496.521 69.8311L500.973 72.1066C502.379 69.3558 502.98 66.2773 502.98 63.0391H497.98H492.98C492.98 65.0482 492.609 66.4978 492.068 67.5555L496.521 69.8311ZM497.98 63.0391H502.98C502.98 59.773 502.384 56.6693 500.973 53.908L496.521 56.1836L492.068 58.4591C492.604 59.5065 492.98 60.9731 492.98 63.0391H497.98ZM496.521 56.1836L500.973 53.908C499.53 51.085 497.354 48.8837 494.557 47.3919L492.204 51.8037L489.851 56.2155C490.863 56.755 491.565 57.4736 492.068 58.4591L496.521 56.1836ZM492.204 51.8037L494.598 47.4142C491.816 45.8965 488.631 45.2803 485.285 45.2803V50.2803V55.2803C487.44 55.2803 488.868 55.6797 489.81 56.1932L492.204 51.8037ZM485.285 50.2803V45.2803H471.193V50.2803V55.2803H485.285V50.2803ZM471.193 50.2803H466.193V125.5H471.193H476.193V50.2803H471.193ZM471.193 125.5V120.5H448.913V125.5V130.5H471.193V125.5ZM448.913 125.5H453.913V33.0781H448.913H443.913V125.5H448.913ZM499.504 125.5L503.976 123.264L483.537 82.385L479.064 84.6211L474.592 86.8572L495.032 127.736L499.504 125.5ZM479.064 84.6211L479.091 89.621L502.705 89.4941L502.678 84.4941L502.651 79.4942L479.038 79.6212L479.064 84.6211ZM502.678 84.4941L498.236 86.7891L518.929 126.843L523.371 124.548L527.813 122.253L507.12 82.1991L502.678 84.4941ZM523.371 124.548H518.371V125.5H523.371H528.371V124.548H523.371ZM523.371 125.5V120.5H499.504V125.5V130.5H523.371V125.5ZM553.929 33.0781L558.532 31.1261L557.239 28.0781H553.929V33.0781ZM570.94 73.1953L566.337 75.1473L570.932 85.9825L575.541 75.1535L570.94 73.1953ZM588.016 33.0781V28.0781H584.71L583.415 31.12L588.016 33.0781ZM612.01 33.0781L616.479 35.3199L620.112 28.0781H612.01V33.0781ZM582.303 92.3018L577.833 90.0599L577.303 91.118V92.3018H582.303ZM582.303 125.5V130.5H587.303V125.5H582.303ZM559.642 125.5H554.642V130.5H559.642V125.5ZM559.642 92.3018H564.642V91.1158L564.109 90.0561L559.642 92.3018ZM529.871 33.0781V28.0781H521.762L525.404 35.3238L529.871 33.0781ZM553.929 33.0781L549.325 35.0301L566.337 75.1473L570.94 73.1953L575.544 71.2433L558.532 31.1261L553.929 33.0781ZM570.94 73.1953L575.541 75.1535L592.616 35.0363L588.016 33.0781L583.415 31.12L566.34 71.2371L570.94 73.1953ZM588.016 33.0781V38.0781H612.01V33.0781V28.0781H588.016V33.0781ZM612.01 33.0781L607.541 30.8363L577.833 90.0599L582.303 92.3018L586.772 94.5436L616.479 35.3199L612.01 33.0781ZM582.303 92.3018H577.303V125.5H582.303H587.303V92.3018H582.303ZM582.303 125.5V120.5H559.642V125.5V130.5H582.303V125.5ZM559.642 125.5H564.642V92.3018H559.642H554.642V125.5H559.642ZM559.642 92.3018L564.109 90.0561L534.338 30.8325L529.871 33.0781L525.404 35.3238L555.174 94.5474L559.642 92.3018ZM529.871 33.0781V38.0781H553.929V33.0781V28.0781H529.871V33.0781Z" fill="white" mask="url(#path-13-outside-2_2608_38)"/>
</svg>
